<?xml version="1.0" encoding="UTF-8"?>
<svg id="katman_1" data-name="katman 1" xmlns="http://www.w3.org/2000/svg" viewBox="0 0 300 300">
  <defs>
    <style>
      .cls-1 {
        fill: #b31f24;
      }
    </style>
  </defs>
  <path class="cls-1" d="m150,0C67.3,0,0,67.3,0,150s67.3,150,150,150,150-67.3,150-150S232.7,0,150,0Zm0,293c-78.9,0-143-64.1-143-143S71.1,7,150,7s143,64.1,143,143-64.1,143-143,143Zm0-255.6c-62.1,0-112.7,50.5-112.7,112.7s50.6,112.6,112.7,112.6,112.7-50.6,112.7-112.7-50.6-112.6-112.7-112.6h0Zm0,218.3c-58.3,0-105.7-47.3-105.7-105.7s47.4-105.7,105.7-105.7,105.7,47.4,105.7,105.7-47.4,105.7-105.7,105.7h0ZM78.3,74.1v96.3c0,22.4,12.2,43.9,35.6,62.7,17.2,14,34.2,21.4,35,21.6l1.4.6,1.4-.6c.8-.4,17.6-7.8,34.8-21.6,23-18.6,35.4-39.5,35.4-61.1v-97.9H78.3Zm136.2,7v51.9H85.3v-51.9h129.2Zm-30.3,127.6h-5.2c-5-.2-8.2-.4-11.4-.8-3.4-.4-6.4-.6-10.8-.6-1.8,0-3,.4-4.2,1v-51.9c.4-.2,1-.6,2-.8,0,0,3.2-.6,6.6-.2l6,.6c3.4.4,6.2.8,9,.8h8v51.9h0Zm-37.4-.6c-1-.4-2.2-.8-3.6-.8-4.2,0-7.4.2-10.8.6-3.2.4-6.6.6-11.4.8h-5.2v-52.1h8c2.6,0,5.6-.4,9-.8l5.8-.6c3.6-.4,6.8.2,6.8.2.6.2,1.2.4,1.6.6l-.2,52.1h0Zm-61.5-37.7v-30.4h61.5v8.8c-.4,0-4.4-1-8.8-.4l-6,.6c-3.2.4-6,.6-8.6.8h-14.8v9.2h-6.8v8.4h6.8v11h-6.8v8.4h6.8v8.8h-6.8v8.4h6.8v11.4l3.4.2c.2,0,4.2.2,9,.2,5.2-.2,8.6-.4,12-.8,3.2-.2,6.2-.6,10-.6,1.2,0,1.6.4,2.2,1.4.4.4.8,1,1.6,1.6v28.6c-15-7.7-61.5-34.5-61.5-75.6h0Zm67.3,75.9v-29.2c.8-.6,1.2-1.2,1.6-1.6.8-1,1.2-1.4,2.6-1.4,4,0,6.8.2,10,.6s6.8.6,12,.8,9-.2,9-.2l3.4-.2v-9.6h6.2v-8.4h-6.2v-8.8h6.6v-8.3h-6.6v-11h6.2v-8.4h-6.2v-11.2h-14.6c-2.4,0-5.2-.4-8.4-.8l-6-.6c-4.6-.6-8.6.4-8.8.4s-.4,0-.6.2v-8.8h61.9v32.4c-.2,39.7-47.7,66.9-62.1,74.1h0Zm-48.5-124.7c5,3.2,12.2,7.6,12.4,7.8l1.8,1,1.8-1c.4-.2,8.4-4.6,13.2-7.8,4.2-2.6,6-5.6,6.2-9v-28.2h-41.9v28.2c.3,3.2,2.5,6.2,6.5,9Zm28.3-9.5c0,1.6-2,3-3,3.6-3.4,2.2-8.4,5.2-11,6.6-2.4-1.6-7.2-4.4-10.6-6.6-2.4-1.8-3.4-3-3.4-3.6v-7.6h28v1.2c.2,3.6.2,6,0,6.4Zm0-20.6v6h-27.8v-6h27.8Zm36.4,29.9c5,3.2,12.2,7.6,12.4,7.8l1.8,1,1.8-1c.4-.2,8.4-4.6,13.2-7.8,4.2-2.6,6-5.6,6.2-9v-28.2h-41.9v28.4c.3,3,2.5,6,6.5,8.8Zm28.5-9.1c0,1.4-2,2.8-3,3.4-3.4,2.2-8.4,5.2-11,6.6-2.4-1.6-7.2-4.4-10.4-6.6-2.4-1.8-3.4-3-3.4-3.6v-.8s10.8-7.8,13.8-10c2.6,1.8,11.4,7.6,14.2,9.4,0,.8,0,1.2-.2,1.6,0-.2,0,0,0,0h0Zm-27.9-21h28v11l-14.4-9.4-1.8,1.6-11.8,8.6v-11.8h0Zm-.6,71.9l8.8.2v3.8l-8.8-.2c-1.6,0-3-.2-5-.4l-3-.4h-1.6l-.2-3.6h2l3,.4c2,0,3.6.2,4.8.2h0Zm0,11.4l8.8.2v3.8l-8.8-.2c-1.6,0-3-.2-5-.4l-3-.4h-1.6l-.2-3.6h2l3,.4c2,0,3.6.2,4.8.2h0Zm-9.4,14.1l-.2-3.8h2l3.2.4c1.8.2,3.2.4,4.4.4l4.2.2,4.8.2v3.8l-4.8-.2-4.2-.2c-1.4,0-3-.2-4.8-.4l-3.2-.4h-1.4Zm9.4,8.2l8.8.2v3.8l-8.8-.2c-1.4,0-3-.2-4.8-.4,0,0-3-.4-3.2-.4h-1.6l-.2-3.8h2l3.2.4c1.8.2,3.4.4,4.6.4Zm-46.8-29.9v-3.8l8.8-.2c1.4,0,2.8-.2,4.8-.4l2.8-.4h1.8v3.8h-1.6l-2.8.4c-1.8.2-3.6.4-5,.4l-8.8.2Zm16.4,6.8h1.8v3.8h-1.6l-2.6.4c-1.8.2-3.6.4-5,.4l-8.8.2-.2-3.6,8.8-.2c1.4,0,2.8-.2,4.8-.4-.2-.4,2.8-.6,2.8-.6h0Zm0,11.2h1.8v3.8h-1.6l-3,.4c-1.8.2-3.4.4-4.8.4h-1l-8,.2v-3.8l8-.2h1c1.4,0,2.8-.2,4.6-.4l3-.4Zm0,11.3h1.8v3.8h-1.6l-2.8.4c-1.8.2-3.6.4-5,.4h-.8l-7.6.2v-3.8l7.6-.2h1.4c1.4,0,2.8-.2,4.8-.4-.6-.4,2.2-.4,2.2-.4h0Zm-6.4-169.3l-1.2-12.8,4-.4,1,11.8c.4,3.4,1.6,5.6,4.6,5.2,3-.2,4-2.6,3.6-6l-1-11.8,4-.4,1.2,12.8c.4,5.4-2.4,8-7.6,8.4-5,.6-8.2-1.6-8.6-6.8Zm-60.9,36.3l-12.8-15.6,9-7.4,2,2.4-6,5,3.2,4,5.4-4.6,2,2.4-5.4,4.6,3.6,4.4,6-5,2,2.4s-9,7.4-9,7.4Zm34.6-21.6l-6.8-19,3.8-1.4,5.8,16,7.4-2.6,1.2,3-11.4,4Zm56.3-8.1l-3.8-.6,2.6-20,5,.6,5.4,16,2-15,3.8.6-2.6,20-5-.6-5.4-16s-2,15-2,15Zm-108.3,48.9l-15.4-12.8,3.2-3.8,16.4,3.8-11.8-9.6,2.4-3,15.4,12.8-3.2,3.8-16.4-3.8,11.8,9.6s-2.4,3-2.4,3Zm-9.6,16.2l-7.4-4,.6-1.2c.8-1.6,1.6-1.8,3.2-1.6l6.6,1,2-4-8.6-1c-1,0-2.2,0-2.8,1,1-2.4-.2-4.8-2.2-5.8-5-2.6-7.2,1.8-9.2,5.6l-2,3.8,17.8,9.4s2-3.2,2-3.2Zm-9.5-6.6l-.6,1.2-4.8-2.6.6-1.2c1-1.8,2-3.6,4.4-2.4,2.2,1,1.2,3.2.4,5Zm223.1,11.8l18.8-7.8,1.6,3.8-18.8,7.6-1.6-3.6Zm-70.3-65.2l-3.8-1.2,6-19.2,3.8,1.2-6,19.2Zm92.2,77.5l-1.4-5.4,3-.8,3.8,15-3,.8-1.4-5.4-16.6,4.2-1-4s16.6-4.4,16.6-4.4Zm-4.6,26l12-8,.2,4.8-8.4,5.2,8.6,4.4.2,4.2-12.6-6.4-8,.4-.2-4,8.2-.6h0Zm-18.5-52.5c3.4-1.8-2.4-8.6,3.2-12,4-2.2,7-.2,8.8,2.8,1,1.6,1.6,3,1.8,4.6l-3,1.4c-.2-1.4-.6-2.6-1.4-4-.8-1.2-2-2.4-4-1.4-3,1.8,2.6,8.6-3.2,12-3.8,2.2-7,.2-9-3.4-1.2-1.8-1.4-2.8-1.8-4.8l3.4-1.6c0,1.6.4,3.2,1.2,4.6.8,1.2,2.4,2.6,4,1.8h0Zm-20.4-19.2l6.2-5.4.8,1c1.2,1.4,1,2,.2,3.4l-3.2,6,3,3.4,3.8-7.6c.4-1,.8-2,.2-3,1.8,1.8,4.6,1.6,6.2,0,4.2-3.8.8-7.4-2-10.8l-2.8-3.2-15.4,13.4s3,2.8,3,2.8Zm12.6-11.4l1,1c1.4,1.6,2.6,3.4.8,5-1.8,1.8-3.6.2-5-1.4l-1-1,4.2-3.6Zm-43.6-12.6l-4.4-2.2,3-21.2,3.8,1.8-2.6,16.4,11.8-12,3.6,1.8-15.2,15.4h0Zm12.4,7.6l12.4-15.8,9.2,7.2-1.8,2.4-6-4.8-3,4,5.6,4.4-1.8,2.4-5.6-4.4-3.6,4.6,6.2,5-1.8,2.4-9.8-7.4h0Zm-129.4-3.4l-9.8-17.7,3.6-1.8,8.4,15,6.8-3.8,1.6,2.8-10.6,5.5Zm108,225.1l1.4,3.8-3.8,1.4-1.4-3.8,3.8-1.4Zm-24.7-9.6l-3.4,21.4,4.2-1,.8-5,8-1.8,2.6,4.2,4.4-1-12-18.2-4.6,1.4Zm1.8,12.4l1.2-8.6,4.6,7.6-5.8,1Zm86.5-55.3c-1.8-1.4-4-1.6-6.6,0,.6-2.2-.4-4.6-1.8-5.4-2.6-2-5.8-.4-8,2.4-2.2,3-2.4,6.2.6,8.4,1.8,1.4,3.8,1.2,5.8,0-.6,2.6,0,4.6,1.8,5.8,3.2,2.4,6.6,1,8.8-2.2,2.4-3.2,2.8-6.6-.6-9h0Zm-9,1.2c-1.4.8-3,1.8-4.4.8s-1.2-2.6-.2-3.8c1-1.4,2.2-1.4,3.6-.6.8,1,1.2,2.6,1,3.6h0Zm7.4,6c-1,1.4-2.8,1.8-4.2.8s-1.6-2.4-1.2-4c1.6-1,3.2-1.8,5-.6,1.2.8,1.2,2.4.4,3.8h0Zm-118.3,37.7l-5.4-.4-1.2,20.2,5.4.4c6.2.4,11.8-1.6,12.2-9.4.6-8.2-5-10.6-11-10.8h0Zm6.8,10.4c-.2,4.4-3.6,6.8-7,6.6l-2.2-.2.8-13.8,2.2.2c3.4.2,6.4,2.8,6.2,7.2h0ZM23.8,125.8c6,1.8,11-.4,12.8-6.6,1.8-6-1.6-10.6-7.4-12.2-5.8-1.8-11,.6-12.6,6.6-2,6,1.4,10.6,7.2,12.2Zm-4.2-11.4c1.2-3.8,5.2-4.4,8.6-3.4,3.6,1,6.6,3.4,5.4,7.4s-5.2,4.4-8.6,3.4c-3.6-1-6.6-3.6-5.4-7.4Zm182.7,141.1l-5,2.6,9.6,17.8,5-2.6c5.4-3,9.2-7.4,5.4-14.4s-9.6-6.2-15-3.4h0Zm8.6,14.7l-2,1.2-6.6-12,2-1.2c3-1.8,7-1,9,2.8,2.4,3.8.6,7.4-2.4,9.2Zm-96.9-7.1l11.6,3-.8,3-7.6-2-1.4,5,7,1.8-.8,3-7-1.8-1.6,5.4,7.8,2-.8,3-11.6-3s5.2-19.4,5.2-19.4Zm112.5-3.4l2.2,3.4-3.4,2.2-2.2-3.4,3.4-2.2Zm7.6-28l14.2,14.4-2.8,2.8-11-11.2-.6,4.4-3.2-.4,1-7.6,2.4-2.4h0ZM25.6,184.2l-8.6,2.4-1.2-4,19.4-5.6,3,10.8-3,1-2-7-4.8,1.4,1.8,6.6-3,1-1.6-6.6h0Zm256.4,5.3c-.4,1.6-1.2,3.2-1.8,4.4l-3.4-1.2c.8-.8,1.8-1.8,2-3.6.6-2,.4-4.4-2.2-5.2-2.4-.8-4,1.2-4.8,3.4-.4,1.2-.6,2.4-.6,3.6l-10.4-3.2,3.4-11.2,2.8,1-2.2,7.6,4.2,1.4c0-.6.2-1.2.4-1.8.8-2.6,3.2-5.8,8.2-4.4,3.6.9,5.6,4.5,4.4,9.2h0ZM21.8,150.4c-7-.4-10.6-5-10.2-11.6,0-1.4.4-3,1.2-4.6l3.4.6c-1,1.6-1.4,2.8-1.4,4.2-.2,4.2,2.8,6.8,7,7.2,4.2.2,7.4-2,7.6-6.2.2-1.6-.2-3.4-.6-4.4h3.4c.2,1.6.4,3,.4,4.6-.4,6.4-4,10.8-10.8,10.2h0Zm23.1,51.5c-2.8-5.6-8.2-7-13.6-4.4s-8,7.8-5.2,13.4c2.8,5.6,8.4,7,13.8,4.2,5.4-2.4,7.8-7.4,5-13.2h0Zm-6.7,9.8c-3.2,1.8-7.2,1.8-9-1.8s.8-6.6,4.2-8.4c3.2-1.6,7.2-1.8,8.8,1.8,1.5,3.6-.9,6.8-4,8.4h0Zm231.4-9.6c-3.4-1.8-6.4-1-8.2,2.4-.8,1.6-.8,2.8,0,4.4-2.6-1.6-5.2-4-3.4-7,.6-1.4,1.4-2,2.2-2.8l-2.6-1.8c-1.2,1-1.8,2-2.4,3.4-2.8,5.8,1.8,10.2,6.6,12.4,4.2,2,8.8,3,11.6-1.8,1.8-4.2.2-7.4-3.8-9.2h0Zm.8,7.8c-1,1.8-2.8,1.8-4.6,1-1.8-1-3-2.4-2.2-4.2,1-1.8,2.8-1.8,4.6-.8,1.8.8,3.2,2.4,2.2,4Zm-206.7,20.8l-10.2,8.2c-4.2,3.4-8,2.4-11.2-1.8-3.2-4-3.4-8,1-11.2l10.2-8,2.4,3.2-9,7.2c-2.6,2-3.8,4.4-1.8,6.8,1.8,2.4,4.4,1.8,7-.2l9-7.4,2.6,3.2Zm31.8,24.4l-5-2.4-9,18.2,5,2.4c5.4,2.8,11.4,3.4,15-3.8,3.4-7.2-.6-11.4-6-14.4h0Zm2,12.5c-2,4-6,4.8-9,3.2l-2-1,6.2-12.4,2,1c3,1.5,4.8,5.2,2.8,9.2h0Zm-14.6-19.7l-12.8,15.6-3.8-3,3.6-16.6-9.6,11.8-3-2.4,12.8-15.6,3.8,3.2-3.6,16.6,9.6-11.8,3,2.2h0Z"/>
</svg>