<?xml version="1.0" encoding="UTF-8"?>
<svg id="Layer_1" data-name="Layer 1" xmlns="http://www.w3.org/2000/svg" viewBox="0 0 206.38 203.5">
  <defs>
    <style>
      .cls-1 {
        fill: #00b0f0;
      }

      .cls-2 {
        fill: #fff;
      }

      .cls-3 {
        fill: red;
      }

      .cls-4 {
        fill: #7f7f7f;
      }

      .cls-5 {
        stroke-width: 3px;
      }

      .cls-5, .cls-6, .cls-7 {
        fill: none;
        stroke: #000;
        stroke-miterlimit: 8;
      }

      .cls-6 {
        stroke-width: 6px;
      }

      .cls-7 {
        stroke-width: 2.25px;
      }
    </style>
  </defs>
  <ellipse class="cls-1" cx="101" cy="101.75" rx="99.5" ry="100.25"/>
  <ellipse class="cls-5" cx="101" cy="101.75" rx="99.5" ry="100.25"/>
  <circle class="cls-3" cx="101" cy="76" r="29.5"/>
  <circle class="cls-6" cx="101" cy="76" r="29.5"/>
  <ellipse class="cls-2" cx="152.75" cy="129.5" rx="20.25" ry="20.5"/>
  <ellipse class="cls-6" cx="152.75" cy="129.5" rx="20.25" ry="20.5"/>
  <circle class="cls-2" cx="48.25" cy="129.25" r="20.25"/>
  <circle class="cls-6" cx="48.25" cy="129.25" r="20.25"/>
  <line class="cls-6" x1="80.38" y1="97" x2="62.5" y2="115.11"/>
  <line class="cls-6" x1="138.28" y1="115.18" x2="122" y2="97"/>
  <circle class="cls-4" cx="155.25" cy="44.25" r="6.5"/>
  <circle class="cls-7" cx="155.25" cy="44.25" r="6.5"/>
  <circle class="cls-4" cx="11.5" cy="63" r="8.25"/>
  <circle class="cls-7" cx="11.5" cy="63" r="8.25"/>
  <circle class="cls-4" cx="74.5" cy="14.5" r="11.75"/>
  <circle class="cls-7" cx="74.5" cy="14.5" r="11.75"/>
  <line class="cls-7" x1="167.25" y1="115.31" x2="187.89" y2="89.75"/>
  <line class="cls-7" x1="155.04" y1="50.75" x2="152.75" y2="109.45"/>
  <line class="cls-7" x1="86.25" y1="14.25" x2="150.51" y2="39.42"/>
  <ellipse class="cls-4" cx="83.25" cy="176" rx="14.5" ry="14.75"/>
  <ellipse class="cls-7" cx="83.25" cy="176" rx="14.5" ry="14.75"/>
  <line class="cls-7" x1="138.37" y1="144.25" x2="93.25" y2="165.57"/>
  <line class="cls-7" x1="62.75" y1="143.75" x2="72.9" y2="165.48"/>
  <line class="cls-7" x1="11.75" y1="71.25" x2="34.54" y2="115.34"/>
  <line class="cls-7" x1="74.75" y1="26.25" x2="80.77" y2="55.1"/>
  <line class="cls-7" x1="152.75" y1="150.25" x2="163.2" y2="180.67"/>
  <line class="cls-7" x1="83.32" y1="190.75" x2="82.75" y2="199.58"/>
  <line class="cls-7" x1="34.17" y1="143.75" x2="24.75" y2="168.35"/>
  <line class="cls-7" x1="19.75" y1="62.75" x2="71.93" y2="76.04"/>
  <ellipse class="cls-4" cx="195.25" cy="82.5" rx="10" ry="10.25"/>
  <ellipse class="cls-7" cx="195.25" cy="82.5" rx="10" ry="10.25"/>
  <line class="cls-7" x1="122.25" y1="55.25" x2="148.73" y2="44.25"/>
  <line class="cls-7" x1="159.75" y1="39.85" x2="171.52" y2="31.25"/>
</svg>