<?xml version="1.0" encoding="UTF-8"?>
<svg id="Layer_1" data-name="Layer 1" xmlns="http://www.w3.org/2000/svg" viewBox="0 0 206.88 204">
  <defs>
    <style>
      .cls-1 {
        fill: #fff;
      }

      .cls-2 {
        fill: red;
      }

      .cls-3 {
        fill: #7f7f7f;
      }

      .cls-4 {
        fill: #d9d9d9;
      }

      .cls-5 {
        stroke-width: 3px;
      }

      .cls-5, .cls-6, .cls-7 {
        fill: none;
        stroke: #000;
        stroke-miterlimit: 8;
      }

      .cls-6 {
        stroke-width: 6px;
      }

      .cls-7 {
        stroke-width: 2.25px;
      }
    </style>
  </defs>
  <ellipse class="cls-4" cx="101.25" cy="102" rx="99.75" ry="100.5"/>
  <ellipse class="cls-5" cx="101.25" cy="102" rx="99.75" ry="100.5"/>
  <ellipse class="cls-2" cx="101.5" cy="76.25" rx="29.5" ry="29.75"/>
  <ellipse class="cls-6" cx="101.5" cy="76.25" rx="29.5" ry="29.75"/>
  <circle class="cls-1" cx="153" cy="130" r="20.5"/>
  <circle class="cls-6" cx="153" cy="130" r="20.5"/>
  <ellipse class="cls-1" cx="48.5" cy="129.75" rx="20" ry="20.25"/>
  <ellipse class="cls-6" cx="48.5" cy="129.75" rx="20" ry="20.25"/>
  <line class="cls-6" x1="80.88" y1="97.5" x2="63" y2="115.61"/>
  <line class="cls-6" x1="138.78" y1="115.68" x2="122.5" y2="97.5"/>
  <ellipse class="cls-3" cx="155.75" cy="44.5" rx="6.5" ry="6.75"/>
  <ellipse class="cls-7" cx="155.75" cy="44.5" rx="6.5" ry="6.75"/>
  <ellipse class="cls-3" cx="12" cy="63.25" rx="8.25" ry="8.5"/>
  <ellipse class="cls-7" cx="12" cy="63.25" rx="8.25" ry="8.5"/>
  <ellipse class="cls-3" cx="75" cy="14.75" rx="11.75" ry="12"/>
  <ellipse class="cls-7" cx="75" cy="14.75" rx="11.75" ry="12"/>
  <line class="cls-7" x1="167.75" y1="115.81" x2="188.39" y2="90.25"/>
  <line class="cls-7" x1="155.54" y1="51.25" x2="153.25" y2="109.95"/>
  <line class="cls-7" x1="86.75" y1="14.75" x2="151.01" y2="39.92"/>
  <circle class="cls-3" cx="83.5" cy="176.5" r="14.75"/>
  <circle class="cls-7" cx="83.5" cy="176.5" r="14.75"/>
  <line class="cls-7" x1="138.87" y1="144.75" x2="93.75" y2="166.07"/>
  <line class="cls-7" x1="63.25" y1="144.25" x2="73.4" y2="165.98"/>
  <line class="cls-7" x1="11.75" y1="71.75" x2="34.54" y2="115.84"/>
  <line class="cls-7" x1="74.75" y1="26.75" x2="80.77" y2="55.6"/>
  <line class="cls-7" x1="153.25" y1="150.75" x2="163.7" y2="181.17"/>
  <line class="cls-7" x1="83.32" y1="191.25" x2="82.75" y2="200.08"/>
  <line class="cls-7" x1="34.67" y1="144.25" x2="25.25" y2="168.85"/>
  <line class="cls-7" x1="20.25" y1="63.25" x2="72.43" y2="76.54"/>
  <circle class="cls-3" cx="195.5" cy="83" r="10.25"/>
  <circle class="cls-7" cx="195.5" cy="83" r="10.25"/>
  <line class="cls-7" x1="122.75" y1="55.25" x2="149.23" y2="44.25"/>
  <line class="cls-7" x1="160.25" y1="39.85" x2="172.02" y2="31.25"/>
</svg>