<?xml version="1.0" encoding="utf-8"?>
<!-- Generator: Adobe Illustrator 27.5.0, SVG Export Plug-In . SVG Version: 6.00 Build 0)  -->
<svg version="1.1" id="Layer_1" xmlns="http://www.w3.org/2000/svg" xmlns:xlink="http://www.w3.org/1999/xlink" x="0px" y="0px"
	 viewBox="0 0 233.91 223.52" style="enable-background:new 0 0 233.91 223.52;" xml:space="preserve">
<style type="text/css">
	.st0{fill-rule:evenodd;clip-rule:evenodd;fill:#CCCCCC;}
	.st1{fill:none;stroke:#000000;stroke-width:8;stroke-miterlimit:8;}
	.st2{fill-rule:evenodd;clip-rule:evenodd;fill:#FF0000;}
	.st3{fill-rule:evenodd;clip-rule:evenodd;fill:#FFFFFF;}
	.st4{fill:none;stroke:#000000;stroke-width:9;stroke-miterlimit:8;}
	.st5{fill-rule:evenodd;clip-rule:evenodd;fill:#666666;}
	.st6{fill:none;stroke:#000000;stroke-width:4;stroke-miterlimit:8;}
</style>
<ellipse class="st0" cx="115.56" cy="111.08" rx="99.5" ry="100.25"/>
<ellipse class="st1" cx="115.56" cy="111.08" rx="99.5" ry="100.25"/>
<circle class="st2" cx="115.56" cy="85.33" r="29.5"/>
<circle class="st1" cx="115.56" cy="85.33" r="29.5"/>
<ellipse class="st3" cx="167.31" cy="138.83" rx="20.25" ry="20.5"/>
<ellipse class="st1" cx="167.31" cy="138.83" rx="20.25" ry="20.5"/>
<circle class="st3" cx="62.81" cy="138.58" r="20.25"/>
<circle class="st1" cx="62.81" cy="138.58" r="20.25"/>
<line class="st4" x1="94.95" y1="106.33" x2="77.06" y2="124.44"/>
<line class="st4" x1="152.84" y1="124.52" x2="136.56" y2="106.33"/>
<circle class="st5" cx="169.81" cy="53.58" r="6.5"/>
<circle class="st6" cx="169.81" cy="53.58" r="6.5"/>
<circle class="st5" cx="26.06" cy="72.33" r="8.25"/>
<circle class="st6" cx="26.06" cy="72.33" r="8.25"/>
<circle class="st5" cx="89.06" cy="23.83" r="11.75"/>
<circle class="st6" cx="89.06" cy="23.83" r="11.75"/>
<line class="st6" x1="181.81" y1="124.65" x2="202.45" y2="99.08"/>
<line class="st6" x1="169.61" y1="60.08" x2="167.31" y2="118.78"/>
<line class="st6" x1="100.81" y1="23.58" x2="165.08" y2="48.75"/>
<ellipse class="st5" cx="97.81" cy="185.33" rx="14.5" ry="14.75"/>
<ellipse class="st6" cx="97.81" cy="185.33" rx="14.5" ry="14.75"/>
<line class="st6" x1="152.93" y1="153.58" x2="107.81" y2="174.9"/>
<line class="st6" x1="77.31" y1="153.08" x2="87.46" y2="174.82"/>
<line class="st6" x1="26.31" y1="80.58" x2="49.1" y2="124.67"/>
<line class="st6" x1="89.31" y1="35.58" x2="95.33" y2="64.43"/>
<line class="st6" x1="167.31" y1="159.58" x2="177.76" y2="190"/>
<line class="st6" x1="97.88" y1="200.08" x2="97.31" y2="208.91"/>
<line class="st6" x1="48.73" y1="153.08" x2="39.31" y2="177.68"/>
<line class="st6" x1="34.31" y1="72.08" x2="86.49" y2="85.37"/>
<ellipse class="st5" cx="209.81" cy="91.83" rx="10" ry="10.25"/>
<ellipse class="st6" cx="209.81" cy="91.83" rx="10" ry="10.25"/>
<line class="st6" x1="136.81" y1="64.58" x2="163.29" y2="53.58"/>
<line class="st6" x1="174.31" y1="49.18" x2="186.08" y2="40.58"/>
</svg>
