<?xml version="1.0" encoding="UTF-8"?>
<svg id="Layer_1" data-name="Layer 1" xmlns="http://www.w3.org/2000/svg" viewBox="0 0 209.75 208.5">
  <defs>
    <style>
      .cls-1 {
        stroke-width: 8px;
      }

      .cls-1, .cls-2, .cls-3 {
        fill: none;
        stroke: #000;
        stroke-miterlimit: 8;
      }

      .cls-2 {
        stroke-width: 9px;
      }

      .cls-4 {
        fill: #fff;
      }

      .cls-5 {
        fill: red;
      }

      .cls-6 {
        fill: #666;
      }

      .cls-7 {
        fill: #55caf4;
      }

      .cls-3 {
        stroke-width: 4px;
      }
    </style>
  </defs>
  <ellipse class="cls-7" cx="103.5" cy="104.25" rx="99.5" ry="100.25"/>
  <ellipse class="cls-1" cx="103.5" cy="104.25" rx="99.5" ry="100.25"/>
  <circle class="cls-5" cx="103.5" cy="78.5" r="29.5"/>
  <circle class="cls-1" cx="103.5" cy="78.5" r="29.5"/>
  <ellipse class="cls-4" cx="155.25" cy="132" rx="20.25" ry="20.5"/>
  <ellipse class="cls-1" cx="155.25" cy="132" rx="20.25" ry="20.5"/>
  <circle class="cls-4" cx="50.75" cy="131.75" r="20.25"/>
  <circle class="cls-1" cx="50.75" cy="131.75" r="20.25"/>
  <line class="cls-2" x1="82.88" y1="99.5" x2="65" y2="117.61"/>
  <line class="cls-2" x1="140.78" y1="117.68" x2="124.5" y2="99.5"/>
  <circle class="cls-6" cx="157.75" cy="46.75" r="6.5"/>
  <circle class="cls-3" cx="157.75" cy="46.75" r="6.5"/>
  <circle class="cls-6" cx="14" cy="65.5" r="8.25"/>
  <circle class="cls-3" cx="14" cy="65.5" r="8.25"/>
  <circle class="cls-6" cx="77" cy="17" r="11.75"/>
  <circle class="cls-3" cx="77" cy="17" r="11.75"/>
  <line class="cls-3" x1="169.75" y1="117.81" x2="190.39" y2="92.25"/>
  <line class="cls-3" x1="157.54" y1="53.25" x2="155.25" y2="111.95"/>
  <line class="cls-3" x1="88.75" y1="16.75" x2="153.01" y2="41.92"/>
  <ellipse class="cls-6" cx="85.75" cy="178.5" rx="14.5" ry="14.75"/>
  <ellipse class="cls-3" cx="85.75" cy="178.5" rx="14.5" ry="14.75"/>
  <line class="cls-3" x1="140.87" y1="146.75" x2="95.75" y2="168.07"/>
  <line class="cls-3" x1="65.25" y1="146.25" x2="75.4" y2="167.98"/>
  <line class="cls-3" x1="14.25" y1="73.75" x2="37.04" y2="117.84"/>
  <line class="cls-3" x1="77.25" y1="28.75" x2="83.27" y2="57.6"/>
  <line class="cls-3" x1="155.25" y1="152.75" x2="165.7" y2="183.17"/>
  <line class="cls-3" x1="85.82" y1="193.25" x2="85.25" y2="202.08"/>
  <line class="cls-3" x1="36.67" y1="146.25" x2="27.25" y2="170.85"/>
  <line class="cls-3" x1="22.25" y1="65.25" x2="74.43" y2="78.54"/>
  <ellipse class="cls-6" cx="197.75" cy="85" rx="10" ry="10.25"/>
  <ellipse class="cls-3" cx="197.75" cy="85" rx="10" ry="10.25"/>
  <line class="cls-3" x1="124.75" y1="57.75" x2="151.23" y2="46.75"/>
  <line class="cls-3" x1="162.25" y1="42.35" x2="174.02" y2="33.75"/>
</svg>