<?xml version="1.0" encoding="UTF-8"?><svg id="Layer_1" xmlns="http://www.w3.org/2000/svg" xmlns:xlink="http://www.w3.org/1999/xlink" viewBox="0 0 936.64 326.85"><defs><style>.cls-1,.cls-2,.cls-3,.cls-4,.cls-5,.cls-6,.cls-7,.cls-8,.cls-9,.cls-10,.cls-11{fill:none;}.cls-2{stroke:#7f7f7f;}.cls-2,.cls-3,.cls-4{stroke-width:2.19px;}.cls-2,.cls-3,.cls-4,.cls-5,.cls-6,.cls-7,.cls-8,.cls-9,.cls-10,.cls-12,.cls-13,.cls-14{stroke-miterlimit:8;}.cls-3,.cls-11{stroke:#000;}.cls-4,.cls-10{stroke:#bcbec0;}.cls-15{clip-path:url(#clippath);}.cls-16{letter-spacing:0em;}.cls-17{letter-spacing:0em;}.cls-18,.cls-19,.cls-20{fill:#ed2024;}.cls-21{fill:#e6e6e6;}.cls-22,.cls-23,.cls-24,.cls-25,.cls-26{fill:#fff;}.cls-27{fill:#999;}.cls-28{fill:#939598;}.cls-29{fill:#b3b4b4;}.cls-30{fill:#666766;}.cls-31{fill:#333;}.cls-32,.cls-33{fill:#a7a9ac;}.cls-34{fill:#cccccb;}.cls-35{fill:gray;}.cls-36,.cls-37,.cls-38,.cls-14{fill:#28aee4;}.cls-39{fill:#7995af;}.cls-40{fill:#4d4d4e;}.cls-5,.cls-6,.cls-7,.cls-8,.cls-9,.cls-12{stroke-width:3px;}.cls-5,.cls-37{stroke:#00aeef;}.cls-6,.cls-19,.cls-12{stroke:#ed1c24;}.cls-7,.cls-23{stroke:#fff;}.cls-8,.cls-13{stroke:#f26522;}.cls-9,.cls-24,.cls-20,.cls-41,.cls-42,.cls-33,.cls-38,.cls-14{stroke:#a7a9ac;}.cls-10{stroke-width:6px;}.cls-23,.cls-24,.cls-19,.cls-20,.cls-41,.cls-42,.cls-33,.cls-37,.cls-38,.cls-11{stroke-miterlimit:10;}.cls-23,.cls-24,.cls-19,.cls-20,.cls-43,.cls-44,.cls-45,.cls-46,.cls-47,.cls-48,.cls-49{fill-rule:evenodd;}.cls-50{clip-path:url(#clippath-1);}.cls-51{font-size:28px;}.cls-51,.cls-25{font-family:Helvetica, Helvetica;}.cls-12{fill:#ed1c24;}.cls-41{fill:#00aeef;}.cls-42,.cls-13{fill:#f26522;}.cls-52{letter-spacing:0em;}.cls-53{letter-spacing:0em;}.cls-25,.cls-26{font-size:20px;}.cls-54{letter-spacing:0em;}.cls-26,.cls-55{font-family:Helvetica-Bold, Helvetica;font-weight:700;}.cls-43{fill:#2c3584;}.cls-44{fill:#29aae2;}.cls-45{fill:#243763;}.cls-46{fill:#1e4f7a;}.cls-47{fill:#be2227;}.cls-48{fill:#a97c50;}.cls-49{fill:#ffd28b;}.cls-55{font-size:22px;}.cls-56{letter-spacing:0em;}.cls-57{letter-spacing:0em;}.cls-11{stroke-width:.97px;}</style><clipPath id="clippath"><rect class="cls-1" x="747.65" y="114.91" width="129.46" height="211.71"/></clipPath><clipPath id="clippath-1"><rect class="cls-1" x="710.41" y="148.32" width="9.53" height="61"/></clipPath></defs><circle class="cls-41" cx="126.7" cy="217.5" r="12.5"/><text class="cls-51" transform="translate(122.1 226.5)"><tspan x="0" y="0">-</tspan></text><path class="cls-32" d="m87.55,195.94l3.15,8.94,6.66-6.74c.58-.59.58-1.54-.01-2.12-.59-.58-1.54-.58-2.12.01l-4.97,5.04,2.48.56-2.35-6.67c-.28-.78-1.13-1.19-1.91-.92-.78.28-1.19,1.13-.92,1.91Zm6.02-10.77l-3.72,16.62,2.93.66,3.72-16.62-2.93-.66Z"/><circle class="cls-42" cx="94.7" cy="173" r="12.5"/><circle class="cls-8" cx="94.7" cy="173" r="12.5"/><path class="cls-32" d="m31.38,208.61l-7.69,5.54,8.35,4.48c.73.39,1.64.12,2.03-.61.39-.73.12-1.64-.61-2.03l-6.23-3.35.17,2.54,5.74-4.14c.67-.48.82-1.42.34-2.09-.48-.67-1.42-.82-2.09-.34Zm17.16,2.4l-22.12,1.46.2,2.99,22.12-1.46-.2-2.99Z"/><text class="cls-55" transform="translate(88.26 178.86)"><tspan x="0" y="0">+</tspan></text><path class="cls-19" d="m50.76,218.61c-3.05-3.57-2.65-8.91.89-11.94,3.54-3.03,8.89-2.59,11.94.98,3.05,3.57,2.65,8.91-.89,11.94-3.54,3.03-8.89,2.59-11.94-.98Z"/><ellipse class="cls-6" cx="57.17" cy="213.13" rx="8.44" ry="8.5" transform="translate(-124.8 88.31) rotate(-40.54)"/><path class="cls-24" d="m51.2,230.35c-1.88-2.2-1.64-5.5.55-7.36,2.18-1.87,5.48-1.6,7.36.6,1.88,2.2,1.64,5.49-.55,7.36-2.18,1.87-5.48,1.6-7.36-.6Z"/><ellipse class="cls-7" cx="55.15" cy="226.97" rx="5.2" ry="5.24" transform="translate(-134.26 90.29) rotate(-40.53)"/><path class="cls-24" d="m66.38,217.37c-1.88-2.2-1.64-5.5.55-7.36,2.18-1.87,5.48-1.6,7.36.6,1.88,2.2,1.64,5.49-.55,7.36-2.18,1.87-5.48,1.6-7.36-.6Z"/><ellipse class="cls-7" cx="70.33" cy="213.99" rx="5.2" ry="5.24" transform="translate(-122.17 97.02) rotate(-40.52)"/><path class="cls-20" d="m155.62,144.13c2.22-4.14,7.35-5.71,11.45-3.51,4.11,2.2,5.64,7.34,3.42,11.48-2.22,4.14-7.35,5.71-11.45,3.51-4.11-2.2-5.64-7.34-3.42-11.48Z"/><ellipse class="cls-12" cx="163.05" cy="148.11" rx="8.5" ry="8.44" transform="translate(-44.51 221.87) rotate(-61.81)"/><path class="cls-24" d="m144.84,148.8c1.37-2.55,4.53-3.52,7.06-2.16,2.53,1.36,3.47,4.52,2.11,7.07-1.37,2.55-4.53,3.52-7.06,2.16-2.53-1.36-3.47-4.52-2.11-7.07Z"/><path class="cls-24" d="m162.45,158.23c1.37-2.55,4.53-3.52,7.06-2.16,2.53,1.36,3.47,4.52,2.11,7.07s-4.53,3.52-7.06,2.16c-2.53-1.36-3.47-4.52-2.11-7.07Z"/><ellipse class="cls-7" cx="167.03" cy="160.69" rx="5.24" ry="5.2" transform="translate(-53.5 232.01) rotate(-61.81)"/><path class="cls-32" d="m174.88,237l-4.18-8.5,9.48-.04c.83,0,1.5.67,1.51,1.49,0,.83-.67,1.5-1.49,1.51l-7.08.03,1.34-2.16,3.12,6.35c.37.74.06,1.64-.68,2.01-.74.37-1.64.06-2.01-.68Zm14.73,4.99l-17.3-10.72,1.58-2.55,17.3,10.72-1.58,2.55Z"/><ellipse class="cls-18" cx="191.08" cy="249.23" rx="8.44" ry="8.5" transform="translate(-12.97 10.5) rotate(-3.05)"/><ellipse class="cls-12" cx="191.08" cy="249.23" rx="8.44" ry="8.5" transform="translate(-13.01 10.54) rotate(-3.05)"/><path class="cls-24" d="m175.86,259.26c-.15-2.89,2.05-5.36,4.91-5.51,2.87-.15,5.32,2.07,5.47,4.96.15,2.89-2.05,5.36-4.91,5.51-2.87.15-5.32-2.07-5.47-4.96Z"/><ellipse class="cls-7" cx="181.05" cy="258.99" rx="5.2" ry="5.24" transform="translate(-13.54 10.01) rotate(-3.05)"/><path class="cls-28" d="m124.03,293.5l3.91,8.63-9.47-.27c-.83-.02-1.48-.71-1.46-1.54.02-.83.71-1.48,1.54-1.46l7.07.2-1.41,2.12-2.92-6.45c-.34-.75,0-1.64.75-1.98.75-.34,1.64,0,1.99.75Zm-13.49-4.75l15.87,10.57-1.66,2.5-15.87-10.57,1.66-2.5Z"/><path class="cls-23" d="m195.81,258.2c-.15-2.89,2.05-5.36,4.91-5.51,2.87-.15,5.32,2.07,5.47,4.96.15,2.89-2.05,5.36-4.91,5.51s-5.32-2.07-5.47-4.96Z"/><ellipse class="cls-7" cx="201" cy="257.92" rx="5.2" ry="5.24" transform="translate(-13.49 11.11) rotate(-3.06)"/><path class="cls-20" d="m105.89,278.78c4.16,2.17,5.79,7.28,3.63,11.41-2.16,4.13-7.28,5.72-11.44,3.54-4.16-2.17-5.79-7.28-3.63-11.41,2.16-4.13,7.28-5.72,11.44-3.54Z"/><ellipse class="cls-6" cx="101.98" cy="286.26" rx="8.44" ry="8.5" transform="translate(-198.97 244.18) rotate(-62.43)"/><path class="cls-24" d="m101.1,268.05c2.57,1.34,3.57,4.49,2.24,7.03-1.33,2.55-4.49,3.52-7.05,2.18-2.57-1.34-3.57-4.49-2.24-7.03,1.33-2.55,4.49-3.52,7.05-2.18Z"/><ellipse class="cls-7" cx="98.69" cy="272.66" rx="5.2" ry="5.24" transform="translate(-188.69 233.95) rotate(-62.43)"/><path class="cls-24" d="m91.85,285.76c2.57,1.34,3.57,4.49,2.24,7.03-1.33,2.55-4.49,3.52-7.05,2.18s-3.57-4.49-2.24-7.03c1.33-2.55,4.49-3.52,7.05-2.18Z"/><path class="cls-32" d="m77.14,263.56l4.98-8.06-9.43-.94c-.82-.08-1.56.52-1.64,1.34-.08.82.52,1.56,1.34,1.64l7.04.7-1.13-2.28-3.72,6.02c-.44.7-.22,1.63.49,2.06.7.44,1.63.22,2.06-.49Zm-17.27,4.61l20.38-10.07-1.33-2.69-20.38,10.07,1.33,2.69Z"/><ellipse class="cls-7" cx="89.45" cy="290.37" rx="5.2" ry="5.24" transform="translate(-209.35 235.27) rotate(-62.43)"/><circle class="cls-13" cx="46.7" cy="266.5" r="12.5"/><circle class="cls-8" cx="46.7" cy="266.5" r="12.5"/><text class="cls-55" transform="translate(40.06 273.64)"><tspan x="0" y="0">+</tspan></text><circle class="cls-42" cx="164.2" cy="287" r="12.5"/><text class="cls-55" transform="translate(157.9 293.04)"><tspan x="0" y="0">+</tspan></text><ellipse class="cls-41" cx="187.45" cy="205" rx="12.25" ry="12.5"/><text class="cls-51" transform="translate(182.76 214)"><tspan x="0" y="0">-</tspan></text><circle class="cls-41" cx="33.2" cy="159" r="12.5"/><text class="cls-51" transform="translate(28.36 168.5)"><tspan x="0" y="0">-</tspan></text><path class="cls-33" d="m13.45,178.29l.75,9.45,8.16-4.81c.71-.42.95-1.34.53-2.05-.42-.71-1.34-.95-2.05-.53l-6.09,3.59,2.26,1.17-.56-7.05c-.07-.83-.79-1.44-1.61-1.38-.83.07-1.44.79-1.38,1.61Zm9.68-10.98l-8.95,17.23,2.66,1.38,8.95-17.23-2.66-1.38Z"/><path class="cls-32" d="m131.3,146.24l-6.11-7.25,9.19-2.31c.8-.2,1.62.28,1.82,1.09.2.8-.28,1.62-1.09,1.82l-6.86,1.73.78-2.42,4.56,5.41c.53.63.45,1.58-.18,2.11s-1.58.45-2.11-.18Zm16.35,1.57l-20.22-6.52.92-2.86,20.22,6.52-.92,2.86Z"/><path class="cls-32" d="m161.04,182.87l-1.35-9.38,9.02,2.9c.79.25,1.22,1.1.97,1.89-.25.79-1.1,1.22-1.89.97l-6.74-2.16,1.94-1.64,1.01,7c.12.82-.45,1.58-1.27,1.7-.82.12-1.58-.45-1.7-1.27Zm16.45,14.02l-17.12-20.27,2.29-1.94,17.12,20.27-2.29,1.94Z"/><path class="cls-32" d="m147.15,233.24l.88,9.43-8.86-3.35c-.78-.29-1.17-1.16-.87-1.93.29-.78,1.16-1.17,1.93-.87l6.62,2.5-2.02,1.54-.65-7.05c-.08-.82.53-1.56,1.36-1.63.82-.08,1.56.53,1.63,1.36Zm-10.26-7.65l10.61,13.93-2.39,1.82-10.61-13.93,2.39-1.82Z"/><path class="cls-32" d="m135.49,269.38l-3.3-8.88,9.43.93c.82.08,1.43.82,1.35,1.64-.08.82-.82,1.43-1.64,1.35l-7.04-.69,1.55-2.01,2.46,6.63c.29.78-.11,1.64-.88,1.93-.78.29-1.64-.11-1.93-.88Zm18.98,10.19l-20.95-16.16,1.83-2.38,20.95,16.16-1.83,2.38Z"/><text class="cls-26" transform="translate(11.43 19.16)"><tspan class="cls-56" x="0" y="0">Multi-sca</tspan><tspan x="86.86" y="0">l</tspan><tspan class="cls-56" x="92.42" y="0">e</tspan><tspan x="103.56" y="0"> </tspan><tspan class="cls-56" x="109.12" y="0">mode</tspan><tspan x="162.54" y="0">li</tspan><tspan class="cls-56" x="173.65" y="0">n</tspan><tspan x="185.89" y="0">g</tspan></text><line class="cls-10" x1="211.09" y1="32.07" x2="7.86" y2="32.16"/><text class="cls-25" transform="translate(0 65.65)"><tspan x="0" y="0">S</tspan><tspan class="cls-53" x="13.34" y="0">t</tspan><tspan class="cls-56" x="18.88" y="0">a</tspan><tspan class="cls-53" x="30.02" y="0">t</tspan><tspan class="cls-56" x="35.56" y="0">i</tspan><tspan x="40.02" y="0">s</tspan><tspan class="cls-53" x="50.02" y="0">t</tspan><tspan class="cls-56" x="55.56" y="0">i</tspan><tspan x="60.02" y="0">c</tspan><tspan class="cls-56" x="70.02" y="0">al</tspan><tspan class="cls-53" x="85.63" y="0"> </tspan><tspan x="91.16" y="0">m</tspan><tspan class="cls-56" x="107.82" y="0">e</tspan><tspan x="118.97" y="0">c</tspan><tspan class="cls-56" x="128.97" y="0">hani</tspan><tspan x="166.86" y="0">cs</tspan><tspan class="cls-53" x="186.86" y="0"> </tspan><tspan class="cls-56" x="192.4" y="0">and</tspan><tspan x="20.63" y="24">quantum mechanics </tspan></text><circle class="cls-5" cx="33.2" cy="159" r="12.5"/><circle class="cls-5" cx="126.7" cy="217.5" r="12.5"/><ellipse class="cls-5" cx="187.45" cy="205" rx="12.25" ry="12.5"/><ellipse class="cls-7" cx="149.42" cy="151.25" rx="5.24" ry="5.2" transform="translate(-54.48 211.5) rotate(-61.81)"/><circle class="cls-8" cx="164.2" cy="287" r="12.5"/><text class="cls-26" transform="translate(364.79 17.2)"><tspan class="cls-17" x="0" y="0">Mac</tspan><tspan x="38.97" y="0">h</tspan><tspan class="cls-54" x="51.18" y="0">i</tspan><tspan x="56.72" y="0">ne learning</tspan></text><text class="cls-25" transform="translate(317.47 64.06)"><tspan x="0" y="0">P</tspan><tspan class="cls-56" x="13.34" y="0">o</tspan><tspan class="cls-53" x="24.48" y="0">t</tspan><tspan class="cls-56" x="30.02" y="0">en</tspan><tspan class="cls-53" x="52.31" y="0">t</tspan><tspan class="cls-56" x="57.84" y="0">ial</tspan><tspan class="cls-57" x="77.91" y="0"> </tspan><tspan class="cls-17" x="83.45" y="0">ene</tspan><tspan x="116.88" y="0">r</tspan><tspan class="cls-52" x="123.54" y="0">g</tspan><tspan x="134.68" y="0">y</tspan><tspan class="cls-57" x="144.68" y="0"> </tspan><tspan x="150.22" y="0">s</tspan><tspan class="cls-52" x="160.22" y="0">u</tspan><tspan x="171.36" y="0">r</tspan><tspan class="cls-57" x="178.02" y="0">f</tspan><tspan class="cls-52" x="183.56" y="0">a</tspan><tspan x="194.7" y="0">c</tspan><tspan class="cls-17" x="204.7" y="0">e</tspan><tspan class="cls-54" x="215.84" y="0"> </tspan><tspan x="221.38" y="0">(PES)</tspan><tspan x="-4.37" y="24">development, structure-property</tspan><tspan x="-6.06" y="48">relationships, generative design </tspan></text><line class="cls-10" x1="530.44" y1="32.02" x2="359.48" y2="32.02"/><ellipse class="cls-5" cx="473.38" cy="170.22" rx="5" ry="5.5"/><ellipse class="cls-37" cx="473.38" cy="212.72" rx="5" ry="5.5"/><ellipse class="cls-5" cx="472.63" cy="255.47" rx="5.25" ry="5.75"/><ellipse class="cls-5" cx="520.88" cy="200.97" rx="5" ry="5.75"/><line class="cls-38" x1="476.88" y1="174.22" x2="515.81" y2="201.15"/><line class="cls-9" x1="476.88" y1="174.22" x2="515.81" y2="201.15"/><line class="cls-38" x1="478.38" y1="213.04" x2="517.31" y2="205.22"/><line class="cls-9" x1="478.38" y1="213.04" x2="517.31" y2="205.22"/><line class="cls-38" x1="478.38" y1="212.72" x2="515.05" y2="227.79"/><line class="cls-9" x1="478.38" y1="212.72" x2="515.05" y2="227.79"/><line class="cls-38" x1="477.88" y1="255.34" x2="516.66" y2="231.72"/><line class="cls-9" x1="477.88" y1="255.34" x2="516.66" y2="231.72"/><line class="cls-38" x1="477.88" y1="255.69" x2="517.41" y2="205.22"/><line class="cls-9" x1="477.88" y1="255.69" x2="517.41" y2="205.22"/><line class="cls-38" x1="516.56" y1="231.93" x2="476.88" y2="174.22"/><line class="cls-9" x1="516.56" y1="230.45" x2="476.88" y2="174.22"/><ellipse class="cls-36" cx="424.88" cy="170.22" rx="5" ry="5.5"/><ellipse class="cls-5" cx="424.88" cy="212.72" rx="5" ry="5.5"/><ellipse class="cls-5" cx="424.38" cy="255.47" rx="5" ry="5.75"/><ellipse class="cls-5" cx="377.88" cy="200.72" rx="5" ry="5.5"/><ellipse class="cls-5" cx="377.13" cy="227.72" rx="5.25" ry="5.5"/><line class="cls-38" x1="382.88" y1="200.72" x2="419.55" y2="212.68"/><line class="cls-9" x1="382.88" y1="200.72" x2="419.55" y2="212.68"/><line class="cls-38" x1="382.38" y1="227.59" x2="419.81" y2="212.72"/><line class="cls-9" x1="382.38" y1="227.59" x2="419.81" y2="212.72"/><line class="cls-38" x1="382.38" y1="199.01" x2="422.06" y2="176.22"/><line class="cls-9" x1="382.38" y1="199.01" x2="422.06" y2="176.22"/><line class="cls-38" x1="382.38" y1="227.67" x2="424.93" y2="175.72"/><line class="cls-9" x1="382.38" y1="227.67" x2="424.93" y2="175.72"/><line class="cls-38" x1="382.38" y1="227.72" x2="419.2" y2="255.48"/><line class="cls-9" x1="382.38" y1="227.72" x2="419.2" y2="255.48"/><line class="cls-38" x1="382.88" y1="200.72" x2="418.95" y2="255.32"/><line class="cls-9" x1="382.88" y1="200.72" x2="418.95" y2="255.32"/><ellipse class="cls-5" cx="520.13" cy="227.72" rx="5.25" ry="5.5"/><line class="cls-38" x1="427.88" y1="251.61" x2="469.66" y2="174.22"/><line class="cls-9" x1="427.88" y1="251.61" x2="469.66" y2="174.21"/><line class="cls-38" x1="428.38" y1="174.22" x2="468.06" y2="212.94"/><line class="cls-9" x1="428.38" y1="174.22" x2="468.06" y2="212.94"/><line class="cls-14" x1="429.88" y1="212.9" x2="469.56" y2="174.22"/><line class="cls-9" x1="429.88" y1="212.9" x2="469.56" y2="174.21"/><line class="cls-38" x1="428.38" y1="216.72" x2="468.96" y2="251.5"/><line class="cls-9" x1="428.38" y1="216.72" x2="468.96" y2="251.5"/><line class="cls-38" x1="429.88" y1="212.72" x2="468.06" y2="212.73"/><line class="cls-9" x1="429.88" y1="212.72" x2="468.06" y2="212.73"/><line class="cls-38" x1="428.38" y1="174.22" x2="468.96" y2="251.64"/><line class="cls-9" x1="428.38" y1="174.22" x2="468.96" y2="251.64"/><line class="cls-36" x1="428.38" y1="174.22" x2="469.56" y2="174.23"/><line class="cls-9" x1="428.38" y1="174.22" x2="469.56" y2="174.23"/><line class="cls-38" x1="427.88" y1="251.72" x2="469.06" y2="251.73"/><line class="cls-9" x1="427.88" y1="251.72" x2="469.06" y2="251.73"/><line class="cls-38" x1="427.88" y1="251.4" x2="468.16" y2="212.72"/><line class="cls-9" x1="427.88" y1="251.4" x2="468.16" y2="212.72"/><ellipse class="cls-37" cx="520.88" cy="200.97" rx="5" ry="5.75"/><ellipse class="cls-37" cx="377.88" cy="200.72" rx="5" ry="5.5"/><ellipse class="cls-37" cx="472.63" cy="255.47" rx="5.25" ry="5.75"/><ellipse class="cls-37" cx="377.13" cy="227.72" rx="5.25" ry="5.5"/><ellipse class="cls-5" cx="473.38" cy="212.72" rx="5" ry="5.5"/><ellipse class="cls-37" cx="424.88" cy="212.72" rx="5" ry="5.5"/><ellipse class="cls-5" cx="424.88" cy="170.22" rx="5" ry="5.5"/><ellipse class="cls-37" cx="473.38" cy="170.22" rx="5" ry="5.5"/><ellipse class="cls-37" cx="424.38" cy="255.47" rx="5" ry="5.75"/><ellipse class="cls-37" cx="520.13" cy="227.72" rx="5.25" ry="5.5"/><path class="cls-46" d="m645.62,199c0,2.34,9.29,4.24,20.75,4.24s20.75-1.9,20.75-4.24v11.52c0,2.34-9.29,4.24-20.75,4.24s-20.75-1.9-20.75-4.24v-11.52Z"/><ellipse class="cls-39" cx="666.37" cy="199" rx="20.75" ry="4.24"/><path class="cls-46" d="m645.62,183c0,2.34,9.29,4.24,20.75,4.24s20.75-1.9,20.75-4.24v11.52c0,2.34-9.29,4.24-20.75,4.24s-20.75-1.9-20.75-4.24v-11.52Z"/><ellipse class="cls-39" cx="666.37" cy="183" rx="20.75" ry="4.24"/><path class="cls-46" d="m645.62,167.5c0,2.34,9.29,4.24,20.75,4.24s20.75-1.9,20.75-4.24v11.52c0,2.34-9.29,4.24-20.75,4.24s-20.75-1.9-20.75-4.24v-11.52Z"/><ellipse class="cls-39" cx="666.37" cy="167.5" rx="20.75" ry="4.24"/><text class="cls-26" transform="translate(691.64 18.89)"><tspan class="cls-17" x="0" y="0">C</tspan><tspan x="14.46" y="0">h</tspan><tspan class="cls-16" x="26.68" y="0">e</tspan><tspan x="37.84" y="0">mi</tspan><tspan class="cls-16" x="61.18" y="0">ca</tspan><tspan x="83.51" y="0">l informatics</tspan></text><g class="cls-15"><polygon class="cls-3" points="874.44 149.4 856.34 175.1 770.01 175.1 751.91 149.4 874.44 149.4"/><path class="cls-48" d="m752.2,148.34c0-2.3,27.24-4.17,60.83-4.17s60.83,1.87,60.83,4.17-27.24,4.17-60.83,4.17-60.83-1.87-60.83-4.17"/><path class="cls-49" d="m770.64,174.78c0-2.66,19.26-4.82,43.01-4.82s43.01,2.16,43.01,4.82-19.26,4.82-43.01,4.82-43.01-2.16-43.01-4.82"/><path class="cls-3" d="m769.79,174.78c0-2.66,19.44-4.82,43.42-4.82s43.42,2.16,43.42,4.82-19.44,4.82-43.42,4.82-43.42-2.16-43.42-4.82Z"/><path class="cls-3" d="m751.27,148.51c0-3.02,27.73-5.46,61.93-5.46s61.93,2.45,61.93,5.46"/><polygon class="cls-4" points="829.39 139.39 824.37 141.93 822.63 147.27 825.17 152.28 830.52 154.02 835.54 151.48 837.29 146.14 834.74 141.13 829.39 139.39"/><line class="cls-4" x1="829.39" y1="139.39" x2="829.42" y2="134.77"/><line class="cls-4" x1="835.54" y1="151.48" x2="839.27" y2="154.2"/><line class="cls-2" x1="830.52" y1="154.02" x2="830.83" y2="158.63"/><line class="cls-4" x1="824.37" y1="141.93" x2="820.95" y2="138.82"/><path class="cls-43" d="m826.49,148.68c-1-1.96-.21-4.35,1.75-5.35,1.96-.99,4.36-.21,5.36,1.74,1,1.96.21,4.35-1.75,5.35-1.96.99-4.36.21-5.36-1.74"/><path class="cls-1" d="m826.49,148.68c-1-1.96-.21-4.35,1.75-5.35,1.96-.99,4.36-.21,5.36,1.74,1,1.96.21,4.35-1.75,5.35-1.96.99-4.36.21-5.36-1.74Z"/><polygon class="cls-4" points="755.03 138.84 757.08 131.33 764.62 129.34 770.12 134.86 768.08 142.38 760.53 144.37 755.03 138.84"/><line class="cls-4" x1="757.08" y1="131.33" x2="754.3" y2="128.7"/><line class="cls-4" x1="770.13" y1="134.86" x2="773.87" y2="134.06"/><line class="cls-4" x1="768.08" y1="142.38" x2="770.71" y2="145.14"/><line class="cls-4" x1="755.03" y1="138.84" x2="751.38" y2="139.76"/><line class="cls-4" x1="754.59" y1="129.39" x2="754.97" y2="124.11"/><line class="cls-4" x1="773.08" y1="133.81" x2="776.28" y2="137.53"/><line class="cls-4" x1="770.45" y1="144.46" x2="770.37" y2="149.01"/><line class="cls-4" x1="752.12" y1="139.95" x2="748.21" y2="136.62"/><path class="cls-44" d="m758.64,135.84c.63-2.1,2.85-3.3,4.95-2.68,2.11.63,3.31,2.84,2.68,4.94-.63,2.1-2.84,3.3-4.95,2.68-2.11-.63-3.31-2.84-2.68-4.94"/><path class="cls-1" d="m758.64,135.84c.63-2.1,2.85-3.3,4.95-2.68,2.11.63,3.31,2.84,2.68,4.94-.63,2.1-2.84,3.3-4.95,2.68-2.11-.63-3.31-2.84-2.68-4.94Z"/><polygon class="cls-4" points="844.18 130.35 837.98 136.61 842.02 144.43 850.73 143.01 852.06 134.3 844.18 130.35"/><line class="cls-4" x1="844.18" y1="130.35" x2="843.43" y2="125.75"/><line class="cls-4" x1="852.06" y1="134.3" x2="856.51" y2="132.62"/><line class="cls-4" x1="850.73" y1="143.01" x2="854.31" y2="146.06"/><line class="cls-4" x1="842.02" y1="144.43" x2="839.95" y2="148.65"/><line class="cls-4" x1="837.98" y1="136.61" x2="833.27" y2="136.01"/><path class="cls-44" d="m841.64,138.22c-.36-2.17,1.12-4.21,3.29-4.57,2.17-.36,4.22,1.11,4.58,3.28.36,2.17-1.12,4.21-3.29,4.57-2.17.36-4.22-1.11-4.58-3.28"/><path class="cls-1" d="m841.64,138.22c-.36-2.17,1.12-4.21,3.29-4.57,2.17-.36,4.22,1.11,4.58,3.28s-1.12,4.21-3.29,4.57c-2.17.36-4.22-1.11-4.58-3.28Z"/><polygon class="cls-4" points="802.81 142.74 796.84 141.8 791.95 145.35 791 151.31 794.55 156.19 800.53 157.14 805.42 153.59 806.37 147.63 802.81 142.74"/><line class="cls-4" x1="802.81" y1="142.74" x2="805.76" y2="138.75"/><line class="cls-4" x1="806.37" y1="147.63" x2="811.22" y2="146.49"/><line class="cls-2" x1="805.42" y1="153.59" x2="809.59" y2="156.29"/><line class="cls-2" x1="800.53" y1="157.14" x2="802.05" y2="161.86"/><line class="cls-2" x1="794.55" y1="156.19" x2="791.91" y2="160.4"/><line class="cls-4" x1="791" y1="151.31" x2="786.34" y2="152.97"/><line class="cls-4" x1="791.95" y1="145.35" x2="787.82" y2="142.58"/><line class="cls-4" x1="796.84" y1="141.8" x2="795.83" y2="136.94"/><path class="cls-43" d="m794.5,148.86c.34-2.17,2.39-3.65,4.56-3.3,2.17.34,3.66,2.38,3.31,4.55-.34,2.17-2.39,3.65-4.56,3.3-2.17-.34-3.66-2.38-3.31-4.55"/><path class="cls-1" d="m794.5,148.86c.34-2.17,2.39-3.65,4.56-3.3s3.66,2.38,3.31,4.55c-.34,2.17-2.39,3.65-4.56,3.3s-3.66-2.38-3.31-4.55Z"/><polygon class="cls-4" points="831.26 119.53 825.63 119.53 821.65 123.5 821.65 129.12 825.63 133.09 831.26 133.09 835.24 129.12 835.24 123.5 831.26 119.53"/><line class="cls-4" x1="835.23" y1="123.5" x2="839.52" y2="121.75"/><line class="cls-4" x1="835.23" y1="129.12" x2="839.45" y2="130.99"/><line class="cls-4" x1="831.26" y1="133.09" x2="833.35" y2="137.2"/><line class="cls-4" x1="821.65" y1="129.12" x2="817.61" y2="131.32"/><line class="cls-4" x1="821.65" y1="123.5" x2="817.46" y2="121.56"/><line class="cls-4" x1="825.63" y1="119.53" x2="823.99" y2="115.21"/><path class="cls-43" d="m824.36,126.31c0-2.2,1.78-3.98,3.98-3.98s3.98,1.78,3.98,3.98-1.78,3.98-3.98,3.98-3.98-1.78-3.98-3.98"/><ellipse class="cls-1" cx="828.35" cy="126.31" rx="3.98" ry="3.98"/><polygon class="cls-4" points="849.99 151.97 851.86 144.41 859.35 142.24 864.99 147.63 863.12 155.2 855.62 157.37 849.99 151.97"/><line class="cls-4" x1="851.86" y1="144.41" x2="849.8" y2="142.55"/><line class="cls-4" x1="859.35" y1="142.24" x2="860.03" y2="139.55"/><line class="cls-2" x1="855.54" y1="157.34" x2="854.81" y2="159.99"/><line class="cls-4" x1="864.99" y1="147.63" x2="867.69" y2="146.99"/><line class="cls-2" x1="863.12" y1="155.2" x2="865.08" y2="157.15"/><line class="cls-2" x1="849.99" y1="151.97" x2="847.32" y2="152.72"/><path class="cls-47" d="m853.53,148.88c.58-2.12,2.77-3.37,4.89-2.8,2.12.58,3.38,2.76,2.8,4.88-.58,2.12-2.77,3.37-4.89,2.8-2.12-.58-3.38-2.76-2.8-4.88"/><path class="cls-1" d="m853.53,148.88c.58-2.12,2.77-3.37,4.89-2.8,2.12.58,3.38,2.76,2.8,4.88-.58,2.12-2.77,3.37-4.89,2.8-2.12-.58-3.38-2.76-2.8-4.88Z"/><polygon class="cls-4" points="770.52 155.73 766.61 148.98 770.51 142.23 778.32 142.23 782.22 148.97 778.33 155.72 770.52 155.73"/><line class="cls-4" x1="766.61" y1="148.98" x2="762.79" y2="149.1"/><line class="cls-4" x1="778.32" y1="142.23" x2="780.39" y2="139.01"/><line class="cls-4" x1="782.22" y1="148.97" x2="786.04" y2="149.05"/><line class="cls-2" x1="770.52" y1="155.73" x2="768.6" y2="158.96"/><path class="cls-47" d="m771.07,150.8c-1.06-1.93-.35-4.34,1.58-5.4,1.93-1.05,4.35-.34,5.41,1.58,1.06,1.93.35,4.34-1.58,5.4-1.93,1.05-4.35.35-5.41-1.58"/><path class="cls-1" d="m771.07,150.8c-1.06-1.93-.35-4.34,1.58-5.4,1.93-1.05,4.35-.34,5.41,1.58,1.06,1.93.35,4.34-1.58,5.4-1.93,1.05-4.35.35-5.41-1.58Z"/><polygon class="cls-4" points="779.64 130.91 784.57 124.87 792.28 126.11 795.05 133.4 790.12 139.43 782.41 138.19 779.64 130.91"/><line class="cls-4" x1="784.57" y1="124.87" x2="783.55" y2="121.38"/><line class="cls-4" x1="792.28" y1="126.11" x2="794.04" y2="123.97"/><line class="cls-4" x1="782.34" y1="138.13" x2="780.55" y2="140.21"/><line class="cls-4" x1="795.05" y1="133.4" x2="799.07" y2="134.24"/><line class="cls-4" x1="790.12" y1="139.43" x2="791.44" y2="143.14"/><line class="cls-4" x1="779.64" y1="130.91" x2="775.76" y2="130.23"/><line class="cls-4" x1="784.19" y1="121.93" x2="779.93" y2="120.97"/><line class="cls-4" x1="776.39" y1="130.67" x2="774.73" y2="127.45"/><line class="cls-4" x1="798.41" y1="133.62" x2="799.26" y2="137.03"/><line class="cls-4" x1="790.81" y1="142.61" x2="794.4" y2="143.09"/><path class="cls-44" d="m784.19,129.86c1.43-1.67,3.95-1.86,5.62-.43,1.67,1.43,1.87,3.94.43,5.61-1.43,1.67-3.95,1.86-5.62.43-1.67-1.43-1.87-3.94-.43-5.61"/><path class="cls-1" d="m784.19,129.86c1.43-1.67,3.95-1.86,5.62-.43,1.67,1.43,1.87,3.94.43,5.61-1.43,1.67-3.95,1.86-5.62.43-1.67-1.43-1.87-3.94-.43-5.61Z"/><polygon class="cls-4" points="813.93 130.51 808.4 130.51 804.49 134.42 804.49 139.94 808.4 143.85 813.93 143.85 817.84 139.94 817.84 134.42 813.93 130.51"/><line class="cls-4" x1="817.84" y1="134.42" x2="822.06" y2="132.7"/><line class="cls-4" x1="813.93" y1="143.85" x2="815.99" y2="147.89"/><line class="cls-4" x1="804.48" y1="139.94" x2="800.51" y2="142.11"/><line class="cls-4" x1="808.4" y1="130.51" x2="806.79" y2="126.27"/><path class="cls-47" d="m807.18,137.18c0-2.2,1.78-3.98,3.98-3.98s3.98,1.78,3.98,3.98-1.78,3.98-3.98,3.98-3.98-1.78-3.98-3.98"/><ellipse class="cls-1" cx="811.16" cy="137.18" rx="3.98" ry="3.98"/><path class="cls-49" d="m855.53,174.72h-84.71c-6.01-7.52-12.01-15.69-17.96-24.95,39.96,6.32,80.67,6.32,120.63,0-5.95,9.26-11.95,17.44-17.96,24.95"/><path class="cls-3" d="m875.13,148.1c0,3.02-27.73,5.46-61.93,5.46s-61.93-2.45-61.93-5.46"/><polygon class="cls-3" points="859.33 198.47 846.15 224.17 783.32 224.17 770.15 198.47 859.33 198.47"/><path class="cls-49" d="m783.78,223.85c0-2.66,14.01-4.82,31.3-4.82s31.3,2.16,31.3,4.82-14.01,4.82-31.3,4.82-31.3-2.16-31.3-4.82"/><path class="cls-3" d="m783.16,223.85c0-2.66,14.15-4.82,31.6-4.82s31.6,2.16,31.6,4.82-14.15,4.82-31.6,4.82-31.6-2.16-31.6-4.82Z"/><path class="cls-48" d="m769.97,198.06c0-3.02,20.01-5.46,44.7-5.46s44.7,2.45,44.7,5.46-20.01,5.46-44.7,5.46-44.7-2.45-44.7-5.46"/><path class="cls-3" d="m769.68,197.59c0-3.02,20.18-5.46,45.07-5.46s45.07,2.45,45.07,5.46"/><polygon class="cls-4" points="852.98 192.19 847.88 189.81 842.59 191.73 840.21 196.82 842.13 202.1 847.23 204.48 852.52 202.56 854.9 197.47 852.98 192.19"/><line class="cls-4" x1="852.98" y1="192.19" x2="856.64" y2="189.37"/><line class="cls-2" x1="847.23" y1="204.48" x2="847.38" y2="209.09"/><line class="cls-2" x1="842.13" y1="202.1" x2="838.69" y2="205.18"/><line class="cls-4" x1="847.88" y1="189.81" x2="848.23" y2="185.21"/><path class="cls-43" d="m843.87,195.64c.93-1.99,3.3-2.85,5.3-1.92,1.99.93,2.85,3.3,1.92,5.29-.93,1.99-3.3,2.85-5.3,1.92-1.99-.93-2.85-3.3-1.92-5.29"/><path class="cls-1" d="m843.87,195.64c.93-1.99,3.3-2.85,5.3-1.92,1.99.93,2.85,3.3,1.92,5.29s-3.3,2.85-5.3,1.92c-1.99-.93-2.85-3.3-1.92-5.29Z"/><polygon class="cls-4" points="816.28 183.26 810.07 189.53 814.12 197.35 822.83 195.93 824.16 187.22 816.28 183.26"/><line class="cls-4" x1="816.28" y1="183.26" x2="815.52" y2="178.67"/><line class="cls-4" x1="824.16" y1="187.22" x2="828.61" y2="185.54"/><line class="cls-4" x1="822.83" y1="195.93" x2="826.41" y2="198.98"/><line class="cls-4" x1="814.12" y1="197.35" x2="812.05" y2="201.57"/><line class="cls-4" x1="810.07" y1="189.52" x2="805.37" y2="188.93"/><path class="cls-44" d="m813.74,191.13c-.36-2.17,1.12-4.21,3.29-4.57,2.17-.36,4.22,1.11,4.58,3.28.36,2.17-1.12,4.21-3.29,4.57-2.17.36-4.22-1.11-4.58-3.28"/><path class="cls-1" d="m813.74,191.13c-.36-2.17,1.12-4.21,3.29-4.57,2.17-.36,4.22,1.11,4.58,3.28s-1.12,4.21-3.29,4.57c-2.17.36-4.22-1.11-4.58-3.28Z"/><polygon class="cls-4" points="828.82 194.9 823.2 194.9 819.22 198.87 819.22 204.49 823.2 208.46 828.82 208.46 832.8 204.49 832.8 198.87 828.82 194.9"/><line class="cls-4" x1="832.8" y1="198.87" x2="837.09" y2="197.13"/><line class="cls-2" x1="832.8" y1="204.49" x2="837.02" y2="206.37"/><line class="cls-2" x1="828.82" y1="208.46" x2="830.91" y2="212.58"/><line class="cls-2" x1="819.22" y1="204.49" x2="815.17" y2="206.7"/><line class="cls-4" x1="819.22" y1="198.87" x2="815.03" y2="196.94"/><line class="cls-4" x1="823.2" y1="194.9" x2="821.56" y2="190.59"/><path class="cls-43" d="m821.93,201.68c0-2.2,1.78-3.98,3.98-3.98s3.98,1.78,3.98,3.98-1.78,3.98-3.98,3.98-3.98-1.78-3.98-3.98"/><ellipse class="cls-1" cx="825.91" cy="201.68" rx="3.98" ry="3.98"/><polygon class="cls-4" points="832.78 196 827.12 190.63 828.95 183.05 836.44 180.85 842.09 186.21 840.27 193.79 832.78 196"/><line class="cls-4" x1="827.12" y1="190.63" x2="823.49" y2="191.82"/><line class="cls-4" x1="836.44" y1="180.85" x2="837.51" y2="177.17"/><line class="cls-4" x1="842.09" y1="186.21" x2="845.78" y2="185.21"/><line class="cls-4" x1="832.78" y1="196" x2="831.86" y2="199.64"/><path class="cls-47" d="m831.92,191.12c-1.56-1.55-1.56-4.07,0-5.62,1.55-1.56,4.08-1.56,5.63,0,1.56,1.55,1.56,4.07,0,5.62-1.55,1.56-4.08,1.56-5.63,0"/><path class="cls-1" d="m831.92,191.12c-1.56-1.55-1.56-4.07,0-5.62,1.55-1.56,4.08-1.56,5.63,0,1.56,1.55,1.56,4.07,0,5.62-1.55,1.56-4.08,1.56-5.63,0Z"/><polygon class="cls-4" points="776.84 197.17 775.63 189.48 781.7 184.58 788.98 187.38 790.2 195.08 784.12 199.98 776.84 197.17"/><line class="cls-4" x1="775.63" y1="189.48" x2="772.35" y2="187.91"/><line class="cls-4" x1="781.7" y1="184.58" x2="781.28" y2="181.84"/><line class="cls-4" x1="784.03" y1="199.98" x2="784.39" y2="202.71"/><line class="cls-4" x1="788.98" y1="187.38" x2="792.3" y2="184.96"/><line class="cls-4" x1="790.2" y1="195.08" x2="793.84" y2="196.57"/><line class="cls-4" x1="776.84" y1="197.17" x2="773.75" y2="199.61"/><line class="cls-4" x1="773.19" y1="187.8" x2="769.62" y2="190.32"/><line class="cls-2" x1="774.49" y1="199.43" x2="770.98" y2="198.52"/><line class="cls-4" x1="791.39" y1="185.03" x2="794.51" y2="186.68"/><line class="cls-4" x1="793.03" y1="196.68" x2="795.78" y2="194.33"/><path class="cls-44" d="m779.1,193.1c-.29-2.18,1.24-4.18,3.43-4.46,2.18-.29,4.18,1.24,4.47,3.42.29,2.18-1.24,4.18-3.43,4.46-2.18.29-4.18-1.24-4.47-3.42"/><path class="cls-1" d="m779.1,193.1c-.29-2.18,1.24-4.18,3.43-4.46,2.18-.29,4.18,1.24,4.47,3.42.29,2.18-1.24,4.18-3.43,4.46-2.18.29-4.18-1.24-4.47-3.42Z"/><polygon class="cls-4" points="803.79 190.58 798.25 190.58 794.34 194.48 794.34 200 798.25 203.91 803.79 203.91 807.7 200 807.7 194.48 803.79 190.58"/><line class="cls-4" x1="807.7" y1="194.48" x2="811.92" y2="192.76"/><line class="cls-2" x1="803.79" y1="203.91" x2="805.84" y2="207.96"/><line class="cls-4" x1="794.34" y1="200.01" x2="790.37" y2="202.17"/><line class="cls-4" x1="798.25" y1="190.58" x2="796.64" y2="186.33"/><path class="cls-47" d="m797.04,197.24c0-2.2,1.78-3.98,3.98-3.98s3.98,1.78,3.98,3.98-1.78,3.98-3.98,3.98-3.98-1.78-3.98-3.98"/><ellipse class="cls-1" cx="801.02" cy="197.24" rx="3.98" ry="3.98"/><path class="cls-49" d="m845.56,223.8h-61.66c-4.37-7.73-8.74-15.95-13.07-24.95,29.09,4.6,58.71,4.6,87.8,0-4.33,9-8.7,17.22-13.07,24.95"/><path class="cls-3" d="m859.83,197.17c0,3.02-20.18,5.46-45.07,5.46s-45.07-2.45-45.07-5.46"/><polygon class="cls-3" points="849.33 247.27 839.39 272.97 792.02 272.97 782.08 247.27 849.33 247.27"/><path class="cls-49" d="m792.36,272.65c0-2.66,10.57-4.82,23.6-4.82s23.6,2.16,23.6,4.82-10.57,4.82-23.6,4.82-23.6-2.16-23.6-4.82"/><path class="cls-3" d="m791.9,272.65c0-2.66,10.67-4.82,23.83-4.82s23.83,2.16,23.83,4.82-10.67,4.82-23.83,4.82-23.83-2.16-23.83-4.82Z"/><path class="cls-48" d="m781.95,246.86c0-3.02,15.09-5.46,33.71-5.46s33.71,2.45,33.71,5.46-15.09,5.46-33.71,5.46-33.71-2.45-33.71-5.46"/><path class="cls-3" d="m781.74,246.38c0-3.02,15.22-5.46,33.99-5.46s33.99,2.45,33.99,5.46"/><polygon class="cls-4" points="844.59 238.24 839.49 235.86 834.2 237.78 831.82 242.87 833.75 248.15 838.84 250.52 844.13 248.61 846.51 243.52 844.59 238.24"/><line class="cls-4" x1="844.59" y1="238.24" x2="848.26" y2="235.42"/><line class="cls-2" x1="838.84" y1="250.52" x2="838.99" y2="255.14"/><line class="cls-4" x1="833.74" y1="248.15" x2="830.3" y2="251.23"/><line class="cls-4" x1="839.49" y1="235.86" x2="839.84" y2="231.26"/><path class="cls-43" d="m835.48,241.69c.93-1.99,3.3-2.85,5.3-1.92,1.99.93,2.85,3.3,1.92,5.29-.93,1.99-3.3,2.85-5.3,1.92-1.99-.93-2.85-3.3-1.92-5.29"/><path class="cls-11" d="m835.48,241.69c.93-1.99,3.3-2.85,5.3-1.92,1.99.93,2.85,3.3,1.92,5.29s-3.3,2.85-5.3,1.92c-1.99-.93-2.85-3.3-1.92-5.29Z"/><polygon class="cls-4" points="793.25 239.12 787.05 245.38 791.09 253.2 799.8 251.78 801.14 243.08 793.25 239.12"/><line class="cls-4" x1="793.25" y1="239.12" x2="792.5" y2="234.52"/><line class="cls-4" x1="801.14" y1="243.08" x2="805.58" y2="241.39"/><line class="cls-2" x1="799.8" y1="251.78" x2="803.38" y2="254.84"/><line class="cls-2" x1="791.09" y1="253.2" x2="789.02" y2="257.42"/><line class="cls-4" x1="787.05" y1="245.38" x2="782.35" y2="244.78"/><path class="cls-44" d="m790.72,246.99c-.36-2.17,1.12-4.21,3.29-4.57,2.17-.36,4.22,1.11,4.58,3.28.36,2.17-1.12,4.21-3.29,4.57-2.17.36-4.22-1.11-4.58-3.28"/><path class="cls-11" d="m790.72,246.99c-.36-2.17,1.12-4.21,3.29-4.57,2.17-.36,4.22,1.11,4.58,3.28.36,2.17-1.12,4.21-3.29,4.57-2.17.36-4.22-1.11-4.58-3.28Z"/><polygon class="cls-4" points="816.72 243.4 815.51 235.7 821.58 230.8 828.87 233.61 830.08 241.3 824.01 246.2 816.72 243.4"/><line class="cls-4" x1="815.51" y1="235.7" x2="812.23" y2="234.13"/><line class="cls-4" x1="821.58" y1="230.8" x2="821.16" y2="228.06"/><line class="cls-4" x1="823.91" y1="246.21" x2="824.27" y2="248.93"/><line class="cls-4" x1="828.87" y1="233.61" x2="832.18" y2="231.18"/><line class="cls-4" x1="830.08" y1="241.3" x2="833.72" y2="242.79"/><line class="cls-4" x1="816.72" y1="243.4" x2="813.63" y2="245.83"/><line class="cls-4" x1="813.07" y1="234.02" x2="809.5" y2="236.54"/><line class="cls-4" x1="814.37" y1="245.65" x2="810.86" y2="244.74"/><line class="cls-4" x1="831.27" y1="231.26" x2="834.39" y2="232.9"/><line class="cls-4" x1="832.91" y1="242.91" x2="835.67" y2="240.56"/><path class="cls-44" d="m818.98,239.32c-.29-2.18,1.24-4.18,3.43-4.46,2.18-.29,4.18,1.24,4.47,3.42.29,2.18-1.24,4.18-3.43,4.46-2.18.29-4.18-1.24-4.47-3.42"/><path class="cls-11" d="m818.98,239.32c-.29-2.18,1.24-4.18,3.43-4.46,2.18-.29,4.18,1.24,4.47,3.42s-1.24,4.18-3.43,4.46c-2.18.29-4.18-1.24-4.47-3.42Z"/><polygon class="cls-4" points="818.17 245.63 814.26 241.73 808.73 241.73 804.81 245.63 804.81 251.16 808.73 255.06 814.26 255.06 818.17 251.16 818.17 245.63"/><line class="cls-2" x1="818.17" y1="251.16" x2="822.37" y2="252.92"/><line class="cls-2" x1="808.73" y1="255.06" x2="807.32" y2="259.37"/><line class="cls-4" x1="804.81" y1="245.63" x2="800.47" y2="244.36"/><line class="cls-4" x1="814.26" y1="241.73" x2="816.13" y2="237.59"/><path class="cls-47" d="m808.09,245.67c1.56-1.55,4.08-1.55,5.63,0,1.56,1.55,1.56,4.07,0,5.62-1.56,1.55-4.08,1.55-5.63,0-1.56-1.55-1.56-4.07,0-5.62"/><path class="cls-1" d="m807.91,245.85c1.56-1.55,4.08-1.55,5.63,0,1.56,1.55,1.56,4.07,0,5.62-1.56,1.55-4.08,1.55-5.63,0-1.56-1.55-1.56-4.07,0-5.62Z"/><path class="cls-49" d="m838.46,272.6h-45.96c-3.27-7.46-6.54-15.42-9.74-24.2,21.55,4.81,43.9,4.81,65.45,0-3.21,8.78-6.47,16.75-9.74,24.2"/><path class="cls-3" d="m849.71,245.97c0,3.02-15.22,5.46-33.99,5.46s-33.99-2.45-33.99-5.46"/><polygon class="cls-3" points="842.15 295.55 834.92 321.26 800.45 321.26 793.22 295.55 842.15 295.55"/><path class="cls-49" d="m800.7,320.93c0-2.66,7.69-4.82,17.17-4.82s17.17,2.16,17.17,4.82-7.69,4.82-17.17,4.82-17.17-2.16-17.17-4.82"/><path class="cls-3" d="m800.36,320.93c0-2.66,7.76-4.82,17.34-4.82s17.34,2.16,17.34,4.82-7.76,4.82-17.34,4.82-17.34-2.16-17.34-4.82Z"/><path class="cls-48" d="m793.12,295.14c0-3.02,10.98-5.46,24.53-5.46s24.53,2.45,24.53,5.46-10.98,5.46-24.53,5.46-24.53-2.45-24.53-5.46"/><path class="cls-3" d="m792.97,294.67c0-3.02,11.07-5.46,24.73-5.46s24.73,2.45,24.73,5.46"/><polygon class="cls-4" points="834.94 281.17 829.31 281.17 825.33 285.14 825.33 290.76 829.31 294.73 834.94 294.73 838.92 290.76 838.92 285.14 834.94 281.17"/><line class="cls-4" x1="838.92" y1="285.14" x2="843.21" y2="283.39"/><line class="cls-4" x1="838.92" y1="290.76" x2="843.14" y2="292.63"/><line class="cls-4" x1="834.94" y1="294.73" x2="837.03" y2="298.84"/><line class="cls-4" x1="825.33" y1="290.76" x2="821.29" y2="292.96"/><line class="cls-4" x1="825.33" y1="285.14" x2="821.14" y2="283.2"/><line class="cls-4" x1="829.31" y1="281.17" x2="827.67" y2="276.85"/><path class="cls-45" d="m828.04,287.95c0-2.2,1.78-3.98,3.98-3.98s3.98,1.78,3.98,3.98-1.78,3.98-3.98,3.98-3.98-1.78-3.98-3.98"/><ellipse class="cls-1" cx="832.03" cy="287.95" rx="3.98" ry="3.98"/><polygon class="cls-4" points="802.97 297.36 797.31 291.99 799.14 284.42 806.62 282.21 812.28 287.58 810.45 295.15 802.97 297.36"/><line class="cls-4" x1="797.31" y1="291.99" x2="793.67" y2="293.19"/><line class="cls-4" x1="806.62" y1="282.21" x2="807.69" y2="278.54"/><line class="cls-4" x1="812.28" y1="287.58" x2="815.97" y2="286.57"/><line class="cls-2" x1="802.97" y1="297.36" x2="802.04" y2="301"/><path class="cls-47" d="m802.1,292.48c-1.56-1.55-1.56-4.07,0-5.62,1.55-1.56,4.08-1.56,5.63,0,1.56,1.55,1.56,4.07,0,5.62-1.55,1.56-4.08,1.56-5.63,0"/><path class="cls-1" d="m802.1,292.48c-1.56-1.55-1.56-4.07,0-5.62,1.55-1.56,4.08-1.56,5.63,0,1.56,1.55,1.56,4.07,0,5.62-1.55,1.56-4.08,1.56-5.63,0Z"/><polygon class="cls-4" points="812.28 300.04 811.07 292.34 817.14 287.45 824.42 290.25 825.63 297.95 819.56 302.84 812.28 300.04"/><line class="cls-4" x1="811.07" y1="292.34" x2="807.79" y2="290.77"/><line class="cls-4" x1="817.14" y1="287.45" x2="816.72" y2="284.71"/><line class="cls-2" x1="819.47" y1="302.85" x2="819.83" y2="305.58"/><line class="cls-4" x1="824.42" y1="290.25" x2="827.73" y2="287.83"/><line class="cls-4" x1="825.63" y1="297.95" x2="829.28" y2="299.44"/><line class="cls-2" x1="812.28" y1="300.04" x2="809.19" y2="302.48"/><line class="cls-4" x1="808.63" y1="290.67" x2="805.06" y2="293.19"/><line class="cls-2" x1="809.93" y1="302.3" x2="806.42" y2="301.39"/><line class="cls-4" x1="826.83" y1="287.9" x2="829.94" y2="289.54"/><line class="cls-4" x1="828.47" y1="299.55" x2="831.22" y2="297.2"/><path class="cls-44" d="m814.53,295.96c-.29-2.18,1.24-4.18,3.43-4.46,2.18-.29,4.18,1.24,4.47,3.42.29,2.18-1.24,4.18-3.43,4.46-2.18.29-4.18-1.24-4.47-3.42"/><path class="cls-1" d="m814.53,295.96c-.29-2.18,1.24-4.18,3.43-4.46,2.18-.29,4.18,1.24,4.47,3.42s-1.24,4.18-3.43,4.46c-2.18.29-4.18-1.24-4.47-3.42Z"/><path class="cls-49" d="m834.13,321.84h-33c-2.35-7.85-4.7-16.08-7-24.95,15.44,3.7,31.54,3.7,46.99,0-2.3,8.87-4.65,17.1-7,24.95"/><path class="cls-3" d="m842.36,294.55c0,3.02-11.07,5.46-24.73,5.46s-24.73-2.45-24.73-5.46"/><polygon class="cls-4" points="862.33 141.63 867.84 142.14 872.1 138.61 872.61 133.11 869.07 128.86 863.56 128.35 859.31 131.88 858.79 137.38 862.33 141.63"/><line class="cls-4" x1="858.79" y1="137.38" x2="854.43" y2="138.7"/><line class="cls-4" x1="863.56" y1="128.35" x2="861.89" y2="124.13"/><line class="cls-4" x1="872.61" y1="133.11" x2="876.77" y2="131.32"/><line class="cls-4" x1="867.84" y1="142.14" x2="869.05" y2="146.51"/><path class="cls-47" d="m869.67,135.61c-.2,2.19-2.14,3.79-4.34,3.59-2.19-.2-3.8-2.14-3.6-4.33.2-2.19,2.14-3.79,4.34-3.59,2.19.2,3.8,2.14,3.6,4.33"/><path class="cls-1" d="m869.67,135.61c-.2,2.19-2.14,3.79-4.34,3.59-2.19-.2-3.8-2.14-3.6-4.33.2-2.19,2.14-3.79,4.34-3.59,2.19.2,3.8,2.14,3.6,4.33Z"/></g><text class="cls-25" transform="translate(691.36 62.64)"><tspan x="0" y="0">M</tspan><tspan class="cls-17" x="16.66" y="0">ole</tspan><tspan x="43.41" y="0">c</tspan><tspan class="cls-52" x="53.41" y="0">ula</tspan><tspan x="80.16" y="0">r</tspan><tspan class="cls-57" x="86.82" y="0" xml:space="preserve"> f</tspan><tspan class="cls-17" x="97.89" y="0">inge</tspan><tspan x="135.79" y="0">r</tspan><tspan class="cls-17" x="142.45" y="0">p</tspan><tspan x="153.59" y="0">r</tspan><tspan class="cls-52" x="160.25" y="0">in</tspan><tspan class="cls-54" x="175.85" y="0">t</tspan><tspan class="cls-17" x="181.39" y="0">ing </tspan><tspan x="-31.58" y="24">and high-throughput screening </tspan></text><path class="cls-32" d="m697.16,141.97l.95,9.7-8.91-3.95c-.57-.25-.82-.92-.57-1.48.25-.57.92-.82,1.48-.57l7.14,3.16-1.58,1.14-.76-7.78c-.06-.62.39-1.17,1.01-1.23s1.17.39,1.23,1.01Zm-39.44,12.14l.79-2.02,1.01-1.94,1.2-1.8,1.38-1.67,3.15-2.81,3.67-2.16,4.05-1.44,4.28-.66,2.25-.03,2.24.19,2.25.41,2.27.64,3.87,1.68,3.49,2.32,3.01,2.89,1.08,1.49-1.82,1.32-1.02-1.41.13.15-2.87-2.75.16.12-3.33-2.21.17.09-3.71-1.61.14.05-2.14-.6.1.02-2.14-.39h.11s-2.14-.16-2.14-.16h.11s-2.11.03-2.11.03h.16s-4.1.62-4.1.62l.21-.05-3.84,1.37.19-.09-3.48,2.05.18-.13-3.01,2.68.12-.12-1.29,1.56.07-.09-1.13,1.7.06-.1-.96,1.83.05-.11-.77,1.96-2.09-.82Z"/><g class="cls-50"><rect class="cls-30" x="710.94" y="131.74" width="8.48" height="8.36"/><path d="m711.46,132.25h7.43v7.33h-7.43v-7.33Zm-1.05,8.36h9.53v-9.39h-9.53v9.39Z"/><rect class="cls-34" x="710.94" y="140.31" width="8.48" height="8.36"/><path d="m711.46,140.83h7.43v7.33h-7.43v-7.33Zm-1.05,8.36h9.53v-9.39h-9.53v9.39Z"/><rect class="cls-35" x="710.94" y="148.94" width="8.48" height="8.36"/><path d="m711.46,149.45h7.43v7.32h-7.43v-7.32Zm-1.05,8.36h9.53v-9.39h-9.53v9.39Z"/><rect class="cls-21" x="710.94" y="157.54" width="8.48" height="8.36"/><path d="m711.46,158.06h7.43v7.33h-7.43v-7.33Zm-1.05,8.36h9.53v-9.39h-9.53v9.39Z"/><rect class="cls-27" x="710.94" y="166.13" width="8.48" height="8.36"/><path d="m711.46,166.65h7.43v7.33h-7.43v-7.33Zm-1.05,8.36h9.53v-9.39h-9.53v9.39Z"/><rect class="cls-40" x="710.94" y="174.77" width="8.48" height="8.36"/><path d="m711.46,175.28h7.43v7.33h-7.43v-7.33Zm-1.05,8.36h9.53v-9.39h-9.53v9.39Z"/><rect class="cls-35" x="710.94" y="183.57" width="8.48" height="8.36"/><path d="m711.46,184.09h7.43v7.33h-7.43v-7.33Zm-1.05,8.36h9.53v-9.39h-9.53v9.39Z"/><rect class="cls-31" x="710.94" y="191.99" width="8.48" height="8.36"/><path d="m711.46,192.51h7.43v7.32h-7.43v-7.32Zm-1.05,8.36h9.53v-9.39h-9.53v9.39Z"/><rect class="cls-21" x="710.94" y="200.46" width="8.48" height="8.36"/><path d="m711.46,200.97h7.43v7.32h-7.43v-7.32Zm-1.05,8.36h9.53v-9.39h-9.53v9.39Z"/><rect class="cls-29" x="710.94" y="208.84" width="8.48" height="8.36"/><path d="m711.46,209.36h7.43v7.33h-7.43v-7.33Zm-1.05,8.36h9.53v-9.39h-9.53v9.39Z"/><rect class="cls-22" x="710.94" y="217.34" width="8.48" height="8.36"/><path d="m711.46,217.85h7.43v7.33h-7.43v-7.33Zm-1.05,8.36h9.53v-9.39h-9.53v9.39Z"/></g><line class="cls-10" x1="897.11" y1="32.11" x2="687.43" y2="32.27"/><path class="cls-32" d="m763.32,106.25l4.86,8.92-13.35.72c-.85.05-1.44-.47-1.31-1.15.13-.68.92-1.27,1.77-1.31l10.71-.57-1.68,1.91-3.9-7.15c-.31-.57.09-1.33.89-1.71s1.71-.22,2.02.35Zm-48.15,31.88l.31-2.36.63-2.4.93-2.35,1.23-2.33,3.17-4.33,4.1-3.96,4.87-3.46,5.47-2.82,2.99-1.17,3.06-.96,3.15-.75,3.26-.54,5.79-.34,5.52.47,5.09,1.26,1.99.9-1.95,2.21-1.88-.85.24.08-4.84-1.2.25.04-5.26-.45h.27s-5.55.33-5.55.33l.21-.02-3.08.51.15-.03-3.01.72.15-.04-2.92.92.14-.05-2.81,1.1.21-.09-5.24,2.7.25-.15-4.63,3.28.23-.19-3.89,3.76.19-.22-3.02,4.13.11-.18-1.14,2.17.06-.13-.88,2.23.04-.13-.6,2.27.03-.13-.3,2.29-3.1.27Z"/></svg>