<?xml version="1.0" encoding="UTF-8"?><svg id="Layer_1" xmlns="http://www.w3.org/2000/svg" xmlns:xlink="http://www.w3.org/1999/xlink" viewBox="0 0 1028.86 339.28"><defs><style>.cls-1,.cls-2,.cls-3,.cls-4,.cls-5,.cls-6,.cls-7,.cls-8,.cls-9,.cls-10,.cls-11{fill:none;}.cls-2{stroke:#7f7f7f;}.cls-2,.cls-3,.cls-4{stroke-width:2.19px;}.cls-2,.cls-3,.cls-4,.cls-5,.cls-6,.cls-7,.cls-8,.cls-9,.cls-10,.cls-12,.cls-13,.cls-14{stroke-miterlimit:8;}.cls-3,.cls-11{stroke:#000;}.cls-4,.cls-10{stroke:#bcbec0;}.cls-15{clip-path:url(#clippath);}.cls-16{letter-spacing:0em;}.cls-17{letter-spacing:0em;}.cls-18,.cls-19,.cls-20{fill:#ed2024;}.cls-21{fill:#e6e6e6;}.cls-22,.cls-23,.cls-24,.cls-25,.cls-26{fill:#fff;}.cls-27{fill:#999;}.cls-28{fill:#939598;}.cls-29{fill:#b3b4b4;}.cls-30{fill:#666766;}.cls-31{fill:#303030;}.cls-32{fill:#333;}.cls-33,.cls-34{fill:#a7a9ac;}.cls-35{fill:#cccccb;}.cls-36{fill:gray;}.cls-37,.cls-38,.cls-39,.cls-14{fill:#28aee4;}.cls-40{fill:#7995af;}.cls-41{fill:#4d4d4e;}.cls-5,.cls-6,.cls-7,.cls-8,.cls-9,.cls-12{stroke-width:3px;}.cls-5,.cls-38{stroke:#00aeef;}.cls-6,.cls-19,.cls-12{stroke:#ed1c24;}.cls-7,.cls-23{stroke:#fff;}.cls-8,.cls-13{stroke:#f26522;}.cls-9,.cls-24,.cls-20,.cls-42,.cls-43,.cls-34,.cls-39,.cls-14{stroke:#a7a9ac;}.cls-10{stroke-width:6px;}.cls-23,.cls-24,.cls-19,.cls-20,.cls-42,.cls-43,.cls-34,.cls-38,.cls-39,.cls-11{stroke-miterlimit:10;}.cls-23,.cls-24,.cls-19,.cls-20,.cls-44,.cls-45,.cls-46,.cls-47,.cls-48,.cls-49,.cls-50{fill-rule:evenodd;}.cls-51{clip-path:url(#clippath-1);}.cls-52{font-size:28px;}.cls-52,.cls-25{font-family:Helvetica, Helvetica;}.cls-12{fill:#ed1c24;}.cls-42{fill:#00aeef;}.cls-43,.cls-13{fill:#f26522;}.cls-53{letter-spacing:0em;}.cls-54{letter-spacing:0em;}.cls-25,.cls-26{font-size:20px;}.cls-55{letter-spacing:0em;}.cls-26,.cls-56{font-family:Helvetica-Bold, Helvetica;font-weight:700;}.cls-44{fill:#2c3584;}.cls-45{fill:#29aae2;}.cls-46{fill:#243763;}.cls-47{fill:#1e4f7a;}.cls-48{fill:#be2227;}.cls-49{fill:#a97c50;}.cls-50{fill:#ffd28b;}.cls-56{font-size:22px;}.cls-57{letter-spacing:0em;}.cls-58{letter-spacing:0em;}.cls-11{stroke-width:.97px;}</style><clipPath id="clippath"><rect class="cls-1" x="795.53" y="122.16" width="129.46" height="211.71"/></clipPath><clipPath id="clippath-1"><rect class="cls-1" x="758.29" y="155.57" width="9.53" height="61"/></clipPath></defs><rect class="cls-31" width="1028.86" height="339.28"/><circle class="cls-42" cx="174.58" cy="224.75" r="12.5"/><text class="cls-52" transform="translate(169.98 233.75)"><tspan x="0" y="0">-</tspan></text><path class="cls-33" d="m135.43,203.19l3.15,8.94,6.66-6.74c.58-.59.58-1.54-.01-2.12-.59-.58-1.54-.58-2.12.01l-4.97,5.04,2.48.56-2.35-6.67c-.28-.78-1.13-1.19-1.91-.92-.78.28-1.19,1.13-.92,1.91Zm6.02-10.77l-3.72,16.62,2.93.66,3.72-16.62-2.93-.66Z"/><circle class="cls-43" cx="142.58" cy="180.25" r="12.5"/><circle class="cls-8" cx="142.58" cy="180.25" r="12.5"/><path class="cls-33" d="m79.26,215.85l-7.69,5.54,8.35,4.48c.73.39,1.64.12,2.03-.61.39-.73.12-1.64-.61-2.03l-6.23-3.35.17,2.54,5.74-4.14c.67-.48.82-1.42.34-2.09-.48-.67-1.42-.82-2.09-.34Zm17.16,2.4l-22.12,1.46.2,2.99,22.12-1.46-.2-2.99Z"/><text class="cls-56" transform="translate(136.14 186.11)"><tspan x="0" y="0">+</tspan></text><path class="cls-19" d="m98.64,225.86c-3.05-3.57-2.65-8.91.89-11.94,3.54-3.03,8.89-2.59,11.94.98,3.05,3.57,2.65,8.91-.89,11.94-3.54,3.03-8.89,2.59-11.94-.98Z"/><ellipse class="cls-6" cx="105.05" cy="220.38" rx="8.44" ry="8.5" transform="translate(-118.02 121.16) rotate(-40.54)"/><path class="cls-24" d="m99.08,237.6c-1.88-2.2-1.64-5.5.55-7.36,2.18-1.87,5.48-1.6,7.36.6,1.88,2.2,1.64,5.49-.55,7.36-2.18,1.87-5.48,1.6-7.36-.6Z"/><ellipse class="cls-7" cx="103.03" cy="234.22" rx="5.2" ry="5.24" transform="translate(-127.48 123.14) rotate(-40.53)"/><path class="cls-24" d="m114.26,224.62c-1.88-2.2-1.64-5.5.55-7.36,2.18-1.87,5.48-1.6,7.36.6,1.88,2.2,1.64,5.49-.55,7.36-2.18,1.87-5.48,1.6-7.36-.6Z"/><ellipse class="cls-7" cx="118.21" cy="221.24" rx="5.2" ry="5.24" transform="translate(-115.4 129.87) rotate(-40.52)"/><path class="cls-20" d="m203.5,151.37c2.22-4.14,7.35-5.71,11.45-3.51,4.11,2.2,5.64,7.34,3.42,11.48-2.22,4.14-7.35,5.71-11.45,3.51-4.11-2.2-5.64-7.34-3.42-11.48Z"/><ellipse class="cls-12" cx="210.93" cy="155.36" rx="8.5" ry="8.44" transform="translate(-25.63 267.9) rotate(-61.81)"/><path class="cls-24" d="m192.72,156.04c1.37-2.55,4.53-3.52,7.06-2.16,2.53,1.36,3.47,4.52,2.11,7.07-1.37,2.55-4.53,3.52-7.06,2.16-2.53-1.36-3.47-4.52-2.11-7.07Z"/><path class="cls-24" d="m210.33,165.48c1.37-2.55,4.53-3.52,7.06-2.16,2.53,1.36,3.47,4.52,2.11,7.07s-4.53,3.52-7.06,2.16c-2.53-1.36-3.47-4.52-2.11-7.07Z"/><ellipse class="cls-7" cx="214.91" cy="167.93" rx="5.24" ry="5.2" transform="translate(-34.62 278.03) rotate(-61.81)"/><path class="cls-33" d="m222.76,244.24l-4.18-8.5,9.48-.04c.83,0,1.5.67,1.51,1.49,0,.83-.67,1.5-1.49,1.51l-7.08.03,1.34-2.16,3.12,6.35c.37.74.06,1.64-.68,2.01-.74.37-1.64.06-2.01-.68Zm14.73,4.99l-17.3-10.72,1.58-2.55,17.3,10.72-1.58,2.55Z"/><ellipse class="cls-18" cx="238.96" cy="256.48" rx="8.44" ry="8.5" transform="translate(-13.29 13.06) rotate(-3.05)"/><ellipse class="cls-12" cx="238.96" cy="256.48" rx="8.44" ry="8.5" transform="translate(-13.33 13.1) rotate(-3.05)"/><path class="cls-24" d="m223.74,266.51c-.15-2.89,2.05-5.36,4.91-5.51,2.87-.15,5.32,2.07,5.47,4.96.15,2.89-2.05,5.36-4.91,5.51-2.87.15-5.32-2.07-5.47-4.96Z"/><ellipse class="cls-7" cx="228.93" cy="266.23" rx="5.2" ry="5.24" transform="translate(-13.85 12.57) rotate(-3.05)"/><path class="cls-28" d="m171.91,300.75l3.91,8.63-9.47-.27c-.83-.02-1.48-.71-1.46-1.54.02-.83.71-1.48,1.54-1.46l7.07.2-1.41,2.12-2.92-6.45c-.34-.75,0-1.64.75-1.98.75-.34,1.64,0,1.99.75Zm-13.49-4.75l15.87,10.57-1.66,2.5-15.87-10.57,1.66-2.5Z"/><path class="cls-23" d="m243.69,265.45c-.15-2.89,2.05-5.36,4.91-5.51,2.87-.15,5.32,2.07,5.47,4.96.15,2.89-2.05,5.36-4.91,5.51s-5.32-2.07-5.47-4.96Z"/><ellipse class="cls-7" cx="248.88" cy="265.17" rx="5.2" ry="5.24" transform="translate(-13.81 13.68) rotate(-3.06)"/><path class="cls-20" d="m153.77,286.03c4.16,2.17,5.79,7.28,3.63,11.41-2.16,4.13-7.28,5.72-11.44,3.54-4.16-2.17-5.79-7.28-3.63-11.41,2.16-4.13,7.28-5.72,11.44-3.54Z"/><ellipse class="cls-6" cx="149.86" cy="293.5" rx="8.44" ry="8.5" transform="translate(-179.68 290.52) rotate(-62.43)"/><path class="cls-24" d="m148.98,275.3c2.57,1.34,3.57,4.49,2.24,7.03-1.33,2.55-4.49,3.52-7.05,2.18-2.57-1.34-3.57-4.49-2.24-7.03,1.33-2.55,4.49-3.52,7.05-2.18Z"/><ellipse class="cls-7" cx="146.57" cy="279.91" rx="5.2" ry="5.24" transform="translate(-169.39 280.29) rotate(-62.43)"/><path class="cls-24" d="m139.73,293.01c2.57,1.34,3.57,4.49,2.24,7.03-1.33,2.55-4.49,3.52-7.05,2.18s-3.57-4.49-2.24-7.03c1.33-2.55,4.49-3.52,7.05-2.18Z"/><path class="cls-33" d="m125.02,270.8l4.98-8.06-9.43-.94c-.82-.08-1.56.52-1.64,1.34-.08.82.52,1.56,1.34,1.64l7.04.7-1.13-2.28-3.72,6.02c-.44.7-.22,1.63.49,2.06.7.44,1.63.22,2.06-.49Zm-17.27,4.61l20.38-10.07-1.33-2.69-20.38,10.07,1.33,2.69Z"/><ellipse class="cls-7" cx="137.33" cy="297.62" rx="5.2" ry="5.24" transform="translate(-190.05 281.61) rotate(-62.43)"/><circle class="cls-13" cx="94.58" cy="273.75" r="12.5"/><circle class="cls-8" cx="94.58" cy="273.75" r="12.5"/><text class="cls-56" transform="translate(87.94 280.89)"><tspan x="0" y="0">+</tspan></text><circle class="cls-43" cx="212.08" cy="294.25" r="12.5"/><text class="cls-56" transform="translate(205.78 300.29)"><tspan x="0" y="0">+</tspan></text><ellipse class="cls-42" cx="235.33" cy="212.25" rx="12.25" ry="12.5"/><text class="cls-52" transform="translate(230.64 221.25)"><tspan x="0" y="0">-</tspan></text><circle class="cls-42" cx="81.08" cy="166.25" r="12.5"/><text class="cls-52" transform="translate(76.24 175.75)"><tspan x="0" y="0">-</tspan></text><path class="cls-34" d="m61.33,185.54l.75,9.45,8.16-4.81c.71-.42.95-1.34.53-2.05-.42-.71-1.34-.95-2.05-.53l-6.09,3.59,2.26,1.17-.56-7.05c-.07-.83-.79-1.44-1.61-1.38-.83.07-1.44.79-1.38,1.61Zm9.68-10.98l-8.95,17.23,2.66,1.38,8.95-17.23-2.66-1.38Z"/><path class="cls-33" d="m179.18,153.49l-6.11-7.25,9.19-2.31c.8-.2,1.62.28,1.82,1.09.2.8-.28,1.62-1.09,1.82l-6.86,1.73.78-2.42,4.56,5.41c.53.63.45,1.58-.18,2.11s-1.58.45-2.11-.18Zm16.35,1.57l-20.22-6.52.92-2.86,20.22,6.52-.92,2.86Z"/><path class="cls-33" d="m208.92,190.12l-1.35-9.38,9.02,2.9c.79.25,1.22,1.1.97,1.89-.25.79-1.1,1.22-1.89.97l-6.74-2.16,1.94-1.64,1.01,7c.12.82-.45,1.58-1.27,1.7-.82.12-1.58-.45-1.7-1.27Zm16.45,14.02l-17.12-20.27,2.29-1.94,17.12,20.27-2.29,1.94Z"/><path class="cls-33" d="m195.03,240.49l.88,9.43-8.86-3.35c-.78-.29-1.17-1.16-.87-1.93.29-.78,1.16-1.17,1.93-.87l6.62,2.5-2.02,1.54-.65-7.05c-.08-.82.53-1.56,1.36-1.63.82-.08,1.56.53,1.63,1.36Zm-10.26-7.65l10.61,13.93-2.39,1.82-10.61-13.93,2.39-1.82Z"/><path class="cls-33" d="m183.37,276.62l-3.3-8.88,9.43.93c.82.08,1.43.82,1.35,1.64-.08.82-.82,1.43-1.64,1.35l-7.04-.69,1.55-2.01,2.46,6.63c.29.78-.11,1.64-.88,1.93-.78.29-1.64-.11-1.93-.88Zm18.98,10.19l-20.95-16.16,1.83-2.38,20.95,16.16-1.83,2.38Z"/><text class="cls-26" transform="translate(59.31 26.41)"><tspan class="cls-57" x="0" y="0">Multi-sca</tspan><tspan x="86.86" y="0">l</tspan><tspan class="cls-57" x="92.42" y="0">e</tspan><tspan x="103.56" y="0"> </tspan><tspan class="cls-57" x="109.12" y="0">mode</tspan><tspan x="162.54" y="0">li</tspan><tspan class="cls-57" x="173.65" y="0">n</tspan><tspan x="185.89" y="0">g</tspan></text><line class="cls-10" x1="258.97" y1="39.32" x2="55.74" y2="39.41"/><text class="cls-25" transform="translate(47.88 72.9)"><tspan x="0" y="0">S</tspan><tspan class="cls-54" x="13.34" y="0">t</tspan><tspan class="cls-57" x="18.88" y="0">a</tspan><tspan class="cls-54" x="30.02" y="0">t</tspan><tspan class="cls-57" x="35.56" y="0">i</tspan><tspan x="40.02" y="0">s</tspan><tspan class="cls-54" x="50.02" y="0">t</tspan><tspan class="cls-57" x="55.56" y="0">i</tspan><tspan x="60.02" y="0">c</tspan><tspan class="cls-57" x="70.02" y="0">al</tspan><tspan class="cls-54" x="85.63" y="0"> </tspan><tspan x="91.16" y="0">m</tspan><tspan class="cls-57" x="107.82" y="0">e</tspan><tspan x="118.97" y="0">c</tspan><tspan class="cls-57" x="128.97" y="0">hani</tspan><tspan x="166.86" y="0">cs</tspan><tspan class="cls-54" x="186.86" y="0"> </tspan><tspan class="cls-57" x="192.4" y="0">and</tspan><tspan x="20.63" y="24">quantum mechanics </tspan></text><circle class="cls-5" cx="81.08" cy="166.25" r="12.5"/><circle class="cls-5" cx="174.58" cy="224.75" r="12.5"/><ellipse class="cls-5" cx="235.33" cy="212.25" rx="12.25" ry="12.5"/><ellipse class="cls-7" cx="197.3" cy="158.5" rx="5.24" ry="5.2" transform="translate(-35.6 257.52) rotate(-61.81)"/><circle class="cls-8" cx="212.08" cy="294.25" r="12.5"/><text class="cls-26" transform="translate(412.67 24.44)"><tspan class="cls-17" x="0" y="0">Mac</tspan><tspan x="38.97" y="0">h</tspan><tspan class="cls-55" x="51.18" y="0">i</tspan><tspan x="56.72" y="0">ne learning</tspan></text><text class="cls-25" transform="translate(365.35 71.31)"><tspan x="0" y="0">P</tspan><tspan class="cls-57" x="13.34" y="0">o</tspan><tspan class="cls-54" x="24.48" y="0">t</tspan><tspan class="cls-57" x="30.02" y="0">en</tspan><tspan class="cls-54" x="52.31" y="0">t</tspan><tspan class="cls-57" x="57.84" y="0">ial</tspan><tspan class="cls-58" x="77.91" y="0"> </tspan><tspan class="cls-17" x="83.45" y="0">ene</tspan><tspan x="116.88" y="0">r</tspan><tspan class="cls-53" x="123.54" y="0">g</tspan><tspan x="134.68" y="0">y</tspan><tspan class="cls-58" x="144.68" y="0"> </tspan><tspan x="150.22" y="0">s</tspan><tspan class="cls-53" x="160.22" y="0">u</tspan><tspan x="171.36" y="0">r</tspan><tspan class="cls-58" x="178.02" y="0">f</tspan><tspan class="cls-53" x="183.56" y="0">a</tspan><tspan x="194.7" y="0">c</tspan><tspan class="cls-17" x="204.7" y="0">e</tspan><tspan class="cls-55" x="215.84" y="0"> </tspan><tspan x="221.38" y="0">(PES)</tspan><tspan x="-4.37" y="24">development, structure-property</tspan><tspan x="-6.06" y="48">relationships, generative design </tspan></text><line class="cls-10" x1="578.32" y1="39.26" x2="407.36" y2="39.26"/><ellipse class="cls-5" cx="521.26" cy="177.46" rx="5" ry="5.5"/><ellipse class="cls-38" cx="521.26" cy="219.96" rx="5" ry="5.5"/><ellipse class="cls-5" cx="520.51" cy="262.71" rx="5.25" ry="5.75"/><ellipse class="cls-5" cx="568.76" cy="208.21" rx="5" ry="5.75"/><line class="cls-39" x1="524.76" y1="181.46" x2="563.69" y2="208.4"/><line class="cls-9" x1="524.76" y1="181.46" x2="563.69" y2="208.4"/><line class="cls-39" x1="526.26" y1="220.29" x2="565.19" y2="212.46"/><line class="cls-9" x1="526.26" y1="220.29" x2="565.19" y2="212.46"/><line class="cls-39" x1="526.26" y1="219.96" x2="562.93" y2="235.04"/><line class="cls-9" x1="526.26" y1="219.96" x2="562.93" y2="235.04"/><line class="cls-39" x1="525.76" y1="262.59" x2="564.54" y2="238.96"/><line class="cls-9" x1="525.76" y1="262.59" x2="564.54" y2="238.96"/><line class="cls-39" x1="525.76" y1="262.93" x2="565.29" y2="212.46"/><line class="cls-9" x1="525.76" y1="262.93" x2="565.29" y2="212.46"/><line class="cls-39" x1="564.44" y1="239.18" x2="524.76" y2="181.46"/><line class="cls-9" x1="564.44" y1="237.7" x2="524.76" y2="181.46"/><ellipse class="cls-37" cx="472.76" cy="177.46" rx="5" ry="5.5"/><ellipse class="cls-5" cx="472.76" cy="219.96" rx="5" ry="5.5"/><ellipse class="cls-5" cx="472.26" cy="262.71" rx="5" ry="5.75"/><ellipse class="cls-5" cx="425.76" cy="207.96" rx="5" ry="5.5"/><ellipse class="cls-5" cx="425.01" cy="234.96" rx="5.25" ry="5.5"/><line class="cls-39" x1="430.76" y1="207.96" x2="467.43" y2="219.93"/><line class="cls-9" x1="430.76" y1="207.96" x2="467.43" y2="219.93"/><line class="cls-39" x1="430.26" y1="234.84" x2="467.69" y2="219.96"/><line class="cls-9" x1="430.26" y1="234.84" x2="467.69" y2="219.96"/><line class="cls-39" x1="430.26" y1="206.26" x2="469.94" y2="183.46"/><line class="cls-9" x1="430.26" y1="206.26" x2="469.94" y2="183.46"/><line class="cls-39" x1="430.26" y1="234.91" x2="472.81" y2="182.96"/><line class="cls-9" x1="430.26" y1="234.91" x2="472.81" y2="182.96"/><line class="cls-39" x1="430.26" y1="234.96" x2="467.09" y2="262.73"/><line class="cls-9" x1="430.26" y1="234.96" x2="467.09" y2="262.73"/><line class="cls-39" x1="430.76" y1="207.96" x2="466.83" y2="262.57"/><line class="cls-9" x1="430.76" y1="207.96" x2="466.83" y2="262.57"/><ellipse class="cls-5" cx="568.01" cy="234.96" rx="5.25" ry="5.5"/><line class="cls-39" x1="475.76" y1="258.85" x2="517.54" y2="181.46"/><line class="cls-9" x1="475.76" y1="258.85" x2="517.54" y2="181.46"/><line class="cls-39" x1="476.26" y1="181.46" x2="515.94" y2="220.18"/><line class="cls-9" x1="476.26" y1="181.46" x2="515.94" y2="220.18"/><line class="cls-14" x1="477.76" y1="220.15" x2="517.44" y2="181.46"/><line class="cls-9" x1="477.76" y1="220.15" x2="517.44" y2="181.46"/><line class="cls-39" x1="476.26" y1="223.96" x2="516.84" y2="258.75"/><line class="cls-9" x1="476.26" y1="223.96" x2="516.84" y2="258.75"/><line class="cls-39" x1="477.76" y1="219.96" x2="515.94" y2="219.98"/><line class="cls-9" x1="477.76" y1="219.96" x2="515.94" y2="219.98"/><line class="cls-39" x1="476.26" y1="181.46" x2="516.84" y2="258.89"/><line class="cls-9" x1="476.26" y1="181.46" x2="516.84" y2="258.89"/><line class="cls-37" x1="476.26" y1="181.46" x2="517.44" y2="181.48"/><line class="cls-9" x1="476.26" y1="181.46" x2="517.44" y2="181.48"/><line class="cls-39" x1="475.76" y1="258.96" x2="516.94" y2="258.98"/><line class="cls-9" x1="475.76" y1="258.96" x2="516.94" y2="258.98"/><line class="cls-39" x1="475.76" y1="258.65" x2="516.04" y2="219.96"/><line class="cls-9" x1="475.76" y1="258.65" x2="516.04" y2="219.96"/><ellipse class="cls-38" cx="568.76" cy="208.21" rx="5" ry="5.75"/><ellipse class="cls-38" cx="425.76" cy="207.96" rx="5" ry="5.5"/><ellipse class="cls-38" cx="520.51" cy="262.71" rx="5.25" ry="5.75"/><ellipse class="cls-38" cx="425.01" cy="234.96" rx="5.25" ry="5.5"/><ellipse class="cls-5" cx="521.26" cy="219.96" rx="5" ry="5.5"/><ellipse class="cls-38" cx="472.76" cy="219.96" rx="5" ry="5.5"/><ellipse class="cls-5" cx="472.76" cy="177.46" rx="5" ry="5.5"/><ellipse class="cls-38" cx="521.26" cy="177.46" rx="5" ry="5.5"/><ellipse class="cls-38" cx="472.26" cy="262.71" rx="5" ry="5.75"/><ellipse class="cls-38" cx="568.01" cy="234.96" rx="5.25" ry="5.5"/><path class="cls-47" d="m693.5,206.24c0,2.34,9.29,4.24,20.75,4.24s20.75-1.9,20.75-4.24v11.52c0,2.34-9.29,4.24-20.75,4.24s-20.75-1.9-20.75-4.24v-11.52Z"/><ellipse class="cls-40" cx="714.25" cy="206.24" rx="20.75" ry="4.24"/><path class="cls-47" d="m693.5,190.24c0,2.34,9.29,4.24,20.75,4.24s20.75-1.9,20.75-4.24v11.52c0,2.34-9.29,4.24-20.75,4.24s-20.75-1.9-20.75-4.24v-11.52Z"/><ellipse class="cls-40" cx="714.25" cy="190.24" rx="20.75" ry="4.24"/><path class="cls-47" d="m693.5,174.74c0,2.34,9.29,4.24,20.75,4.24s20.75-1.9,20.75-4.24v11.52c0,2.34-9.29,4.24-20.75,4.24s-20.75-1.9-20.75-4.24v-11.52Z"/><ellipse class="cls-40" cx="714.25" cy="174.74" rx="20.75" ry="4.24"/><text class="cls-26" transform="translate(739.52 26.13)"><tspan class="cls-17" x="0" y="0">C</tspan><tspan x="14.46" y="0">h</tspan><tspan class="cls-16" x="26.68" y="0">e</tspan><tspan x="37.84" y="0">mi</tspan><tspan class="cls-16" x="61.18" y="0">ca</tspan><tspan x="83.51" y="0">l informatics</tspan></text><g class="cls-15"><polygon class="cls-3" points="922.32 156.64 904.22 182.35 817.89 182.35 799.79 156.64 922.32 156.64"/><path class="cls-49" d="m800.08,155.59c0-2.3,27.24-4.17,60.83-4.17s60.83,1.87,60.83,4.17-27.24,4.17-60.83,4.17-60.83-1.87-60.83-4.17"/><path class="cls-50" d="m818.52,182.02c0-2.66,19.26-4.82,43.01-4.82s43.01,2.16,43.01,4.82-19.26,4.82-43.01,4.82-43.01-2.16-43.01-4.82"/><path class="cls-3" d="m817.67,182.02c0-2.66,19.44-4.82,43.42-4.82s43.42,2.16,43.42,4.82-19.44,4.82-43.42,4.82-43.42-2.16-43.42-4.82Z"/><path class="cls-3" d="m799.15,155.76c0-3.02,27.73-5.46,61.93-5.46s61.93,2.45,61.93,5.46"/><polygon class="cls-4" points="877.27 146.63 872.25 149.18 870.51 154.52 873.05 159.52 878.4 161.27 883.42 158.72 885.17 153.38 882.62 148.38 877.27 146.63"/><line class="cls-4" x1="877.27" y1="146.63" x2="877.3" y2="142.02"/><line class="cls-4" x1="883.42" y1="158.72" x2="887.15" y2="161.45"/><line class="cls-2" x1="878.4" y1="161.27" x2="878.71" y2="165.88"/><line class="cls-4" x1="872.25" y1="149.18" x2="868.83" y2="146.07"/><path class="cls-44" d="m874.37,155.92c-1-1.96-.21-4.35,1.75-5.35,1.96-.99,4.36-.21,5.36,1.74,1,1.96.21,4.35-1.75,5.35-1.96.99-4.36.21-5.36-1.74"/><path class="cls-1" d="m874.37,155.92c-1-1.96-.21-4.35,1.75-5.35,1.96-.99,4.36-.21,5.36,1.74,1,1.96.21,4.35-1.75,5.35-1.96.99-4.36.21-5.36-1.74Z"/><polygon class="cls-4" points="802.91 146.09 804.96 138.57 812.51 136.58 818.01 142.11 815.96 149.63 808.41 151.62 802.91 146.09"/><line class="cls-4" x1="804.96" y1="138.57" x2="802.18" y2="135.95"/><line class="cls-4" x1="818.01" y1="142.11" x2="821.75" y2="141.31"/><line class="cls-4" x1="815.96" y1="149.63" x2="818.6" y2="152.39"/><line class="cls-4" x1="802.91" y1="146.09" x2="799.26" y2="147.01"/><line class="cls-4" x1="802.47" y1="136.64" x2="802.85" y2="131.35"/><line class="cls-4" x1="820.96" y1="141.06" x2="824.16" y2="144.78"/><line class="cls-4" x1="818.33" y1="151.71" x2="818.25" y2="156.26"/><line class="cls-4" x1="800" y1="147.2" x2="796.09" y2="143.86"/><path class="cls-45" d="m806.52,143.09c.63-2.1,2.85-3.3,4.95-2.68,2.11.63,3.31,2.84,2.68,4.94-.63,2.1-2.84,3.3-4.95,2.68-2.11-.63-3.31-2.84-2.68-4.94"/><path class="cls-1" d="m806.52,143.09c.63-2.1,2.85-3.3,4.95-2.68,2.11.63,3.31,2.84,2.68,4.94-.63,2.1-2.84,3.3-4.95,2.68-2.11-.63-3.31-2.84-2.68-4.94Z"/><polygon class="cls-4" points="892.06 137.59 885.86 143.85 889.9 151.68 898.61 150.25 899.94 141.55 892.06 137.59"/><line class="cls-4" x1="892.06" y1="137.59" x2="891.31" y2="133"/><line class="cls-4" x1="899.94" y1="141.55" x2="904.39" y2="139.87"/><line class="cls-4" x1="898.61" y1="150.26" x2="902.19" y2="153.31"/><line class="cls-4" x1="889.9" y1="151.68" x2="887.83" y2="155.9"/><line class="cls-4" x1="885.86" y1="143.85" x2="881.15" y2="143.26"/><path class="cls-45" d="m889.52,145.46c-.36-2.17,1.12-4.21,3.29-4.57,2.17-.36,4.22,1.11,4.58,3.28.36,2.17-1.12,4.21-3.29,4.57-2.17.36-4.22-1.11-4.58-3.28"/><path class="cls-1" d="m889.52,145.46c-.36-2.17,1.12-4.21,3.29-4.57,2.17-.36,4.22,1.11,4.58,3.28s-1.12,4.21-3.29,4.57c-2.17.36-4.22-1.11-4.58-3.28Z"/><polygon class="cls-4" points="850.69 149.99 844.72 149.04 839.83 152.59 838.88 158.56 842.43 163.44 848.41 164.39 853.3 160.84 854.25 154.87 850.69 149.99"/><line class="cls-4" x1="850.69" y1="149.99" x2="853.64" y2="146"/><line class="cls-4" x1="854.25" y1="154.87" x2="859.1" y2="153.74"/><line class="cls-2" x1="853.3" y1="160.84" x2="857.47" y2="163.54"/><line class="cls-2" x1="848.41" y1="164.38" x2="849.93" y2="169.1"/><line class="cls-2" x1="842.43" y1="163.44" x2="839.79" y2="167.65"/><line class="cls-4" x1="838.88" y1="158.56" x2="834.22" y2="160.22"/><line class="cls-4" x1="839.83" y1="152.59" x2="835.7" y2="149.83"/><line class="cls-4" x1="844.72" y1="149.04" x2="843.71" y2="144.19"/><path class="cls-44" d="m842.38,156.11c.34-2.17,2.39-3.65,4.56-3.3,2.17.34,3.66,2.38,3.31,4.55-.34,2.17-2.39,3.65-4.56,3.3-2.17-.34-3.66-2.38-3.31-4.55"/><path class="cls-1" d="m842.38,156.11c.34-2.17,2.39-3.65,4.56-3.3s3.66,2.38,3.31,4.55c-.34,2.17-2.39,3.65-4.56,3.3s-3.66-2.38-3.31-4.55Z"/><polygon class="cls-4" points="879.14 126.78 873.51 126.78 869.53 130.75 869.53 136.37 873.51 140.34 879.14 140.34 883.12 136.37 883.12 130.75 879.14 126.78"/><line class="cls-4" x1="883.12" y1="130.75" x2="887.4" y2="129"/><line class="cls-4" x1="883.12" y1="136.37" x2="887.34" y2="138.24"/><line class="cls-4" x1="879.14" y1="140.34" x2="881.23" y2="144.45"/><line class="cls-4" x1="869.53" y1="136.37" x2="865.49" y2="138.57"/><line class="cls-4" x1="869.53" y1="130.75" x2="865.34" y2="128.81"/><line class="cls-4" x1="873.51" y1="126.78" x2="871.87" y2="122.46"/><path class="cls-44" d="m872.24,133.56c0-2.2,1.78-3.98,3.98-3.98s3.98,1.78,3.98,3.98-1.78,3.98-3.98,3.98-3.98-1.78-3.98-3.98"/><ellipse class="cls-1" cx="876.23" cy="133.56" rx="3.98" ry="3.98"/><polygon class="cls-4" points="897.87 159.22 899.74 151.66 907.23 149.49 912.87 154.88 911 162.45 903.5 164.62 897.87 159.22"/><line class="cls-4" x1="899.74" y1="151.66" x2="897.68" y2="149.8"/><line class="cls-4" x1="907.23" y1="149.49" x2="907.91" y2="146.8"/><line class="cls-2" x1="903.42" y1="164.59" x2="902.69" y2="167.24"/><line class="cls-4" x1="912.87" y1="154.88" x2="915.57" y2="154.23"/><line class="cls-2" x1="911" y1="162.45" x2="912.96" y2="164.4"/><line class="cls-2" x1="897.87" y1="159.22" x2="895.2" y2="159.97"/><path class="cls-48" d="m901.41,156.13c.58-2.12,2.77-3.37,4.89-2.8,2.12.58,3.38,2.76,2.8,4.88-.58,2.12-2.77,3.37-4.89,2.8-2.12-.58-3.38-2.76-2.8-4.88"/><path class="cls-1" d="m901.41,156.13c.58-2.12,2.77-3.37,4.89-2.8,2.12.58,3.38,2.76,2.8,4.88-.58,2.12-2.77,3.37-4.89,2.8-2.12-.58-3.38-2.76-2.8-4.88Z"/><polygon class="cls-4" points="818.4 162.98 814.49 156.23 818.39 149.48 826.2 149.48 830.1 156.22 826.21 162.97 818.4 162.98"/><line class="cls-4" x1="814.49" y1="156.23" x2="810.67" y2="156.35"/><line class="cls-4" x1="826.2" y1="149.48" x2="828.27" y2="146.25"/><line class="cls-4" x1="830.1" y1="156.22" x2="833.92" y2="156.3"/><line class="cls-2" x1="818.4" y1="162.98" x2="816.48" y2="166.21"/><path class="cls-48" d="m818.95,158.05c-1.06-1.93-.35-4.34,1.58-5.4,1.93-1.05,4.35-.34,5.41,1.58,1.06,1.93.35,4.34-1.58,5.4-1.93,1.05-4.35.35-5.41-1.58"/><path class="cls-1" d="m818.95,158.05c-1.06-1.93-.35-4.34,1.58-5.4,1.93-1.05,4.35-.34,5.41,1.58,1.06,1.93.35,4.34-1.58,5.4-1.93,1.05-4.35.35-5.41-1.58Z"/><polygon class="cls-4" points="827.52 138.15 832.45 132.12 840.16 133.36 842.93 140.64 838 146.68 830.29 145.44 827.52 138.15"/><line class="cls-4" x1="832.45" y1="132.11" x2="831.43" y2="128.63"/><line class="cls-4" x1="840.16" y1="133.36" x2="841.92" y2="131.22"/><line class="cls-4" x1="830.22" y1="145.37" x2="828.43" y2="147.46"/><line class="cls-4" x1="842.93" y1="140.64" x2="846.95" y2="141.49"/><line class="cls-4" x1="838" y1="146.68" x2="839.32" y2="150.38"/><line class="cls-4" x1="827.52" y1="138.15" x2="823.64" y2="137.48"/><line class="cls-4" x1="832.07" y1="129.18" x2="827.81" y2="128.21"/><line class="cls-4" x1="824.27" y1="137.92" x2="822.61" y2="134.7"/><line class="cls-4" x1="846.29" y1="140.86" x2="847.14" y2="144.28"/><line class="cls-4" x1="838.69" y1="149.86" x2="842.28" y2="150.34"/><path class="cls-45" d="m832.07,137.11c1.43-1.67,3.95-1.86,5.62-.43,1.67,1.43,1.87,3.94.43,5.61-1.43,1.67-3.95,1.86-5.62.43-1.67-1.43-1.87-3.94-.43-5.61"/><path class="cls-1" d="m832.07,137.11c1.43-1.67,3.95-1.86,5.62-.43,1.67,1.43,1.87,3.94.43,5.61-1.43,1.67-3.95,1.86-5.62.43-1.67-1.43-1.87-3.94-.43-5.61Z"/><polygon class="cls-4" points="861.81 137.76 856.28 137.76 852.37 141.66 852.37 147.19 856.28 151.09 861.81 151.09 865.73 147.19 865.73 141.66 861.81 137.76"/><line class="cls-4" x1="865.72" y1="141.66" x2="869.94" y2="139.94"/><line class="cls-4" x1="861.81" y1="151.09" x2="863.87" y2="155.14"/><line class="cls-4" x1="852.37" y1="147.19" x2="848.39" y2="149.36"/><line class="cls-4" x1="856.28" y1="137.76" x2="854.67" y2="133.51"/><path class="cls-48" d="m855.06,144.43c0-2.2,1.78-3.98,3.98-3.98s3.98,1.78,3.98,3.98-1.78,3.98-3.98,3.98-3.98-1.78-3.98-3.98"/><ellipse class="cls-1" cx="859.05" cy="144.43" rx="3.98" ry="3.98"/><path class="cls-50" d="m903.41,181.97h-84.71c-6.01-7.52-12.01-15.69-17.96-24.95,39.96,6.32,80.67,6.32,120.63,0-5.95,9.26-11.95,17.44-17.96,24.95"/><path class="cls-3" d="m923.01,155.35c0,3.02-27.73,5.46-61.93,5.46s-61.93-2.45-61.93-5.46"/><polygon class="cls-3" points="907.21 205.72 894.03 231.42 831.2 231.42 818.03 205.72 907.21 205.72"/><path class="cls-50" d="m831.66,231.1c0-2.66,14.01-4.82,31.3-4.82s31.3,2.16,31.3,4.82-14.01,4.82-31.3,4.82-31.3-2.16-31.3-4.82"/><path class="cls-3" d="m831.04,231.1c0-2.66,14.15-4.82,31.6-4.82s31.6,2.16,31.6,4.82-14.15,4.82-31.6,4.82-31.6-2.16-31.6-4.82Z"/><path class="cls-49" d="m817.85,205.31c0-3.02,20.01-5.46,44.7-5.46s44.7,2.45,44.7,5.46-20.01,5.46-44.7,5.46-44.7-2.45-44.7-5.46"/><path class="cls-3" d="m817.56,204.83c0-3.02,20.18-5.46,45.07-5.46s45.07,2.45,45.07,5.46"/><polygon class="cls-4" points="900.86 199.44 895.76 197.06 890.47 198.98 888.09 204.07 890.01 209.35 895.11 211.72 900.4 209.8 902.78 204.72 900.86 199.44"/><line class="cls-4" x1="900.86" y1="199.44" x2="904.52" y2="196.62"/><line class="cls-2" x1="895.11" y1="211.72" x2="895.26" y2="216.33"/><line class="cls-2" x1="890.01" y1="209.35" x2="886.57" y2="212.43"/><line class="cls-4" x1="895.76" y1="197.06" x2="896.11" y2="192.46"/><path class="cls-44" d="m891.75,202.89c.93-1.99,3.3-2.85,5.3-1.92,1.99.93,2.85,3.3,1.92,5.29-.93,1.99-3.3,2.85-5.3,1.92-1.99-.93-2.85-3.3-1.92-5.29"/><path class="cls-1" d="m891.75,202.89c.93-1.99,3.3-2.85,5.3-1.92,1.99.93,2.85,3.3,1.92,5.29s-3.3,2.85-5.3,1.92c-1.99-.93-2.85-3.3-1.92-5.29Z"/><polygon class="cls-4" points="864.16 190.51 857.95 196.77 862 204.6 870.71 203.17 872.04 194.47 864.16 190.51"/><line class="cls-4" x1="864.16" y1="190.51" x2="863.4" y2="185.91"/><line class="cls-4" x1="872.04" y1="194.47" x2="876.49" y2="192.79"/><line class="cls-4" x1="870.71" y1="203.17" x2="874.29" y2="206.23"/><line class="cls-4" x1="862" y1="204.6" x2="859.93" y2="208.81"/><line class="cls-4" x1="857.95" y1="196.77" x2="853.25" y2="196.17"/><path class="cls-45" d="m861.62,198.38c-.36-2.17,1.12-4.21,3.29-4.57,2.17-.36,4.22,1.11,4.58,3.28.36,2.17-1.12,4.21-3.29,4.57-2.17.36-4.22-1.11-4.58-3.28"/><path class="cls-1" d="m861.62,198.38c-.36-2.17,1.12-4.21,3.29-4.57,2.17-.36,4.22,1.11,4.58,3.28s-1.12,4.21-3.29,4.57c-2.17.36-4.22-1.11-4.58-3.28Z"/><polygon class="cls-4" points="876.7 202.15 871.08 202.15 867.1 206.12 867.1 211.74 871.08 215.71 876.7 215.71 880.68 211.74 880.68 206.12 876.7 202.15"/><line class="cls-4" x1="880.68" y1="206.12" x2="884.97" y2="204.37"/><line class="cls-2" x1="880.68" y1="211.74" x2="884.9" y2="213.61"/><line class="cls-2" x1="876.7" y1="215.71" x2="878.79" y2="219.82"/><line class="cls-2" x1="867.1" y1="211.74" x2="863.05" y2="213.94"/><line class="cls-4" x1="867.1" y1="206.12" x2="862.91" y2="204.18"/><line class="cls-4" x1="871.08" y1="202.15" x2="869.44" y2="197.83"/><path class="cls-44" d="m869.81,208.93c0-2.2,1.78-3.98,3.98-3.98s3.98,1.78,3.98,3.98-1.78,3.98-3.98,3.98-3.98-1.78-3.98-3.98"/><ellipse class="cls-1" cx="873.79" cy="208.93" rx="3.98" ry="3.98"/><polygon class="cls-4" points="880.66 203.24 875 197.88 876.83 190.3 884.32 188.09 889.97 193.46 888.15 201.03 880.66 203.24"/><line class="cls-4" x1="875" y1="197.88" x2="871.37" y2="199.07"/><line class="cls-4" x1="884.32" y1="188.09" x2="885.39" y2="184.42"/><line class="cls-4" x1="889.97" y1="193.46" x2="893.66" y2="192.46"/><line class="cls-4" x1="880.66" y1="203.24" x2="879.74" y2="206.89"/><path class="cls-48" d="m879.8,198.36c-1.56-1.55-1.56-4.07,0-5.62,1.55-1.56,4.08-1.56,5.63,0,1.56,1.55,1.56,4.07,0,5.62-1.55,1.56-4.08,1.56-5.63,0"/><path class="cls-1" d="m879.8,198.36c-1.56-1.55-1.56-4.07,0-5.62,1.55-1.56,4.08-1.56,5.63,0,1.56,1.55,1.56,4.07,0,5.62-1.55,1.56-4.08,1.56-5.63,0Z"/><polygon class="cls-4" points="824.72 204.42 823.51 196.72 829.58 191.83 836.86 194.63 838.08 202.33 832 207.22 824.72 204.42"/><line class="cls-4" x1="823.51" y1="196.72" x2="820.23" y2="195.16"/><line class="cls-4" x1="829.58" y1="191.83" x2="829.16" y2="189.09"/><line class="cls-4" x1="831.91" y1="207.23" x2="832.27" y2="209.96"/><line class="cls-4" x1="836.87" y1="194.63" x2="840.18" y2="192.21"/><line class="cls-4" x1="838.08" y1="202.33" x2="841.72" y2="203.82"/><line class="cls-4" x1="824.72" y1="204.42" x2="821.63" y2="206.86"/><line class="cls-4" x1="821.07" y1="195.05" x2="817.5" y2="197.57"/><line class="cls-2" x1="822.37" y1="206.68" x2="818.86" y2="205.77"/><line class="cls-4" x1="839.27" y1="192.28" x2="842.39" y2="193.93"/><line class="cls-4" x1="840.91" y1="203.93" x2="843.67" y2="201.58"/><path class="cls-45" d="m826.98,200.34c-.29-2.18,1.24-4.18,3.43-4.46,2.18-.29,4.18,1.24,4.47,3.42.29,2.18-1.24,4.18-3.43,4.46-2.18.29-4.18-1.24-4.47-3.42"/><path class="cls-1" d="m826.98,200.34c-.29-2.18,1.24-4.18,3.43-4.46,2.18-.29,4.18,1.24,4.47,3.42.29,2.18-1.24,4.18-3.43,4.46-2.18.29-4.18-1.24-4.47-3.42Z"/><polygon class="cls-4" points="851.67 197.82 846.13 197.82 842.22 201.73 842.22 207.25 846.13 211.16 851.67 211.16 855.58 207.25 855.58 201.73 851.67 197.82"/><line class="cls-4" x1="855.58" y1="201.73" x2="859.8" y2="200.01"/><line class="cls-2" x1="851.67" y1="211.16" x2="853.72" y2="215.2"/><line class="cls-4" x1="842.22" y1="207.25" x2="838.25" y2="209.42"/><line class="cls-4" x1="846.14" y1="197.82" x2="844.53" y2="193.58"/><path class="cls-48" d="m844.92,204.49c0-2.2,1.78-3.98,3.98-3.98s3.98,1.78,3.98,3.98-1.78,3.98-3.98,3.98-3.98-1.78-3.98-3.98"/><ellipse class="cls-1" cx="848.9" cy="204.49" rx="3.98" ry="3.98"/><path class="cls-50" d="m893.44,231.05h-61.66c-4.37-7.73-8.74-15.95-13.07-24.95,29.09,4.6,58.71,4.6,87.8,0-4.33,9-8.7,17.22-13.07,24.95"/><path class="cls-3" d="m907.71,204.42c0,3.02-20.18,5.46-45.07,5.46s-45.07-2.45-45.07-5.46"/><polygon class="cls-3" points="897.21 254.52 887.28 280.22 839.9 280.22 829.96 254.52 897.21 254.52"/><path class="cls-50" d="m840.24,279.9c0-2.66,10.57-4.82,23.6-4.82s23.6,2.16,23.6,4.82-10.57,4.82-23.6,4.82-23.6-2.16-23.6-4.82"/><path class="cls-3" d="m839.78,279.9c0-2.66,10.67-4.82,23.83-4.82s23.83,2.16,23.83,4.82-10.67,4.82-23.83,4.82-23.83-2.16-23.83-4.82Z"/><path class="cls-49" d="m829.83,254.11c0-3.02,15.09-5.46,33.71-5.46s33.71,2.45,33.71,5.46-15.09,5.46-33.71,5.46-33.71-2.45-33.71-5.46"/><path class="cls-3" d="m829.62,253.63c0-3.02,15.22-5.46,33.99-5.46s33.99,2.45,33.99,5.46"/><polygon class="cls-4" points="892.47 245.49 887.37 243.11 882.08 245.03 879.7 250.12 881.63 255.4 886.72 257.77 892.01 255.85 894.39 250.77 892.47 245.49"/><line class="cls-4" x1="892.47" y1="245.49" x2="896.14" y2="242.67"/><line class="cls-2" x1="886.72" y1="257.77" x2="886.87" y2="262.38"/><line class="cls-4" x1="881.63" y1="255.4" x2="878.18" y2="258.48"/><line class="cls-4" x1="887.37" y1="243.11" x2="887.72" y2="238.51"/><path class="cls-44" d="m883.36,248.93c.93-1.99,3.3-2.85,5.3-1.92,1.99.93,2.85,3.3,1.92,5.29-.93,1.99-3.3,2.85-5.3,1.92-1.99-.93-2.85-3.3-1.92-5.29"/><path class="cls-11" d="m883.36,248.93c.93-1.99,3.3-2.85,5.3-1.92,1.99.93,2.85,3.3,1.92,5.29s-3.3,2.85-5.3,1.92c-1.99-.93-2.85-3.3-1.92-5.29Z"/><polygon class="cls-4" points="841.13 246.37 834.93 252.63 838.98 260.45 847.68 259.03 849.02 250.32 841.13 246.37"/><line class="cls-4" x1="841.13" y1="246.37" x2="840.38" y2="241.77"/><line class="cls-4" x1="849.02" y1="250.32" x2="853.46" y2="248.64"/><line class="cls-2" x1="847.68" y1="259.03" x2="851.26" y2="262.08"/><line class="cls-2" x1="838.97" y1="260.45" x2="836.9" y2="264.67"/><line class="cls-4" x1="834.93" y1="252.63" x2="830.23" y2="252.03"/><path class="cls-45" d="m838.6,254.24c-.36-2.17,1.12-4.21,3.29-4.57,2.17-.36,4.22,1.11,4.58,3.28.36,2.17-1.12,4.21-3.29,4.57-2.17.36-4.22-1.11-4.58-3.28"/><path class="cls-11" d="m838.6,254.24c-.36-2.17,1.12-4.21,3.29-4.57,2.17-.36,4.22,1.11,4.58,3.28.36,2.17-1.12,4.21-3.29,4.57-2.17.36-4.22-1.11-4.58-3.28Z"/><polygon class="cls-4" points="864.6 250.64 863.39 242.95 869.46 238.05 876.75 240.85 877.96 248.55 871.89 253.44 864.6 250.64"/><line class="cls-4" x1="863.39" y1="242.95" x2="860.11" y2="241.38"/><line class="cls-4" x1="869.46" y1="238.05" x2="869.04" y2="235.31"/><line class="cls-4" x1="871.79" y1="253.45" x2="872.15" y2="256.18"/><line class="cls-4" x1="876.75" y1="240.85" x2="880.06" y2="238.43"/><line class="cls-4" x1="877.96" y1="248.55" x2="881.6" y2="250.04"/><line class="cls-4" x1="864.6" y1="250.64" x2="861.51" y2="253.08"/><line class="cls-4" x1="860.95" y1="241.27" x2="857.38" y2="243.79"/><line class="cls-4" x1="862.25" y1="252.9" x2="858.75" y2="251.99"/><line class="cls-4" x1="879.15" y1="238.5" x2="882.27" y2="240.15"/><line class="cls-4" x1="880.79" y1="250.15" x2="883.55" y2="247.8"/><path class="cls-45" d="m866.86,246.57c-.29-2.18,1.24-4.18,3.43-4.46,2.18-.29,4.18,1.24,4.47,3.42.29,2.18-1.24,4.18-3.43,4.46-2.18.29-4.18-1.24-4.47-3.42"/><path class="cls-11" d="m866.86,246.57c-.29-2.18,1.24-4.18,3.43-4.46,2.18-.29,4.18,1.24,4.47,3.42s-1.24,4.18-3.43,4.46c-2.18.29-4.18-1.24-4.47-3.42Z"/><polygon class="cls-4" points="866.05 252.88 862.14 248.97 856.61 248.97 852.69 252.88 852.69 258.4 856.61 262.31 862.14 262.31 866.05 258.4 866.05 252.88"/><line class="cls-2" x1="866.05" y1="258.4" x2="870.25" y2="260.16"/><line class="cls-2" x1="856.61" y1="262.31" x2="855.2" y2="266.62"/><line class="cls-4" x1="852.69" y1="252.88" x2="848.35" y2="251.61"/><line class="cls-4" x1="862.14" y1="248.97" x2="864.01" y2="244.83"/><path class="cls-48" d="m855.97,252.92c1.56-1.55,4.08-1.55,5.63,0,1.56,1.55,1.56,4.07,0,5.62-1.56,1.55-4.08,1.55-5.63,0-1.56-1.55-1.56-4.07,0-5.62"/><path class="cls-1" d="m855.79,253.09c1.56-1.55,4.08-1.55,5.63,0,1.56,1.55,1.56,4.07,0,5.62-1.56,1.55-4.08,1.55-5.63,0-1.56-1.55-1.56-4.07,0-5.62Z"/><path class="cls-50" d="m886.34,279.84h-45.96c-3.27-7.46-6.54-15.42-9.74-24.2,21.55,4.81,43.9,4.81,65.45,0-3.21,8.78-6.47,16.75-9.74,24.2"/><path class="cls-3" d="m897.59,253.22c0,3.02-15.22,5.46-33.99,5.46s-33.99-2.45-33.99-5.46"/><polygon class="cls-3" points="890.03 302.8 882.8 328.5 848.33 328.5 841.1 302.8 890.03 302.8"/><path class="cls-50" d="m848.58,328.18c0-2.66,7.69-4.82,17.17-4.82s17.17,2.16,17.17,4.82-7.69,4.82-17.17,4.82-17.17-2.16-17.17-4.82"/><path class="cls-3" d="m848.24,328.18c0-2.66,7.76-4.82,17.34-4.82s17.34,2.16,17.34,4.82-7.76,4.82-17.34,4.82-17.34-2.16-17.34-4.82Z"/><path class="cls-49" d="m841,302.39c0-3.02,10.98-5.46,24.53-5.46s24.53,2.45,24.53,5.46-10.98,5.46-24.53,5.46-24.53-2.45-24.53-5.46"/><path class="cls-3" d="m840.85,301.91c0-3.02,11.07-5.46,24.73-5.46s24.73,2.45,24.73,5.46"/><polygon class="cls-4" points="882.82 288.41 877.19 288.41 873.21 292.39 873.21 298 877.19 301.97 882.82 301.97 886.8 298 886.8 292.39 882.82 288.41"/><line class="cls-4" x1="886.8" y1="292.39" x2="891.09" y2="290.64"/><line class="cls-4" x1="886.8" y1="298" x2="891.02" y2="299.88"/><line class="cls-4" x1="882.82" y1="301.97" x2="884.91" y2="306.09"/><line class="cls-4" x1="873.21" y1="298" x2="869.17" y2="300.21"/><line class="cls-4" x1="873.21" y1="292.39" x2="869.02" y2="290.45"/><line class="cls-4" x1="877.19" y1="288.41" x2="875.55" y2="284.1"/><path class="cls-46" d="m875.92,295.19c0-2.2,1.78-3.98,3.98-3.98s3.98,1.78,3.98,3.98-1.78,3.98-3.98,3.98-3.98-1.78-3.98-3.98"/><ellipse class="cls-1" cx="879.91" cy="295.19" rx="3.98" ry="3.98"/><polygon class="cls-4" points="850.85 304.61 845.19 299.24 847.02 291.67 854.5 289.46 860.16 294.82 858.33 302.4 850.85 304.61"/><line class="cls-4" x1="845.19" y1="299.24" x2="841.55" y2="300.43"/><line class="cls-4" x1="854.5" y1="289.46" x2="855.57" y2="285.78"/><line class="cls-4" x1="860.16" y1="294.82" x2="863.85" y2="293.82"/><line class="cls-2" x1="850.85" y1="304.61" x2="849.92" y2="308.25"/><path class="cls-48" d="m849.98,299.73c-1.56-1.55-1.56-4.07,0-5.62,1.55-1.56,4.08-1.56,5.63,0,1.56,1.55,1.56,4.07,0,5.62-1.55,1.56-4.08,1.56-5.63,0"/><path class="cls-1" d="m849.98,299.73c-1.56-1.55-1.56-4.07,0-5.62,1.55-1.56,4.08-1.56,5.63,0,1.56,1.55,1.56,4.07,0,5.62-1.55,1.56-4.08,1.56-5.63,0Z"/><polygon class="cls-4" points="860.16 307.29 858.95 299.59 865.02 294.7 872.3 297.5 873.51 305.19 867.44 310.09 860.16 307.29"/><line class="cls-4" x1="858.95" y1="299.59" x2="855.67" y2="298.02"/><line class="cls-4" x1="865.02" y1="294.7" x2="864.6" y2="291.96"/><line class="cls-2" x1="867.35" y1="310.1" x2="867.71" y2="312.82"/><line class="cls-4" x1="872.3" y1="297.5" x2="875.62" y2="295.07"/><line class="cls-4" x1="873.51" y1="305.19" x2="877.16" y2="306.68"/><line class="cls-2" x1="860.16" y1="307.29" x2="857.07" y2="309.72"/><line class="cls-4" x1="856.51" y1="297.91" x2="852.94" y2="300.44"/><line class="cls-2" x1="857.81" y1="309.55" x2="854.3" y2="308.63"/><line class="cls-4" x1="874.71" y1="295.15" x2="877.82" y2="296.79"/><line class="cls-4" x1="876.35" y1="306.8" x2="879.1" y2="304.45"/><path class="cls-45" d="m862.41,303.21c-.29-2.18,1.24-4.18,3.43-4.46,2.18-.29,4.18,1.24,4.47,3.42.29,2.18-1.24,4.18-3.43,4.46-2.18.29-4.18-1.24-4.47-3.42"/><path class="cls-1" d="m862.41,303.21c-.29-2.18,1.24-4.18,3.43-4.46,2.18-.29,4.18,1.24,4.47,3.42s-1.24,4.18-3.43,4.46c-2.18.29-4.18-1.24-4.47-3.42Z"/><path class="cls-50" d="m882.01,329.08h-33c-2.35-7.85-4.7-16.08-7-24.95,15.44,3.7,31.54,3.7,46.99,0-2.3,8.87-4.65,17.1-7,24.95"/><path class="cls-3" d="m890.25,301.79c0,3.02-11.07,5.46-24.73,5.46s-24.73-2.45-24.73-5.46"/><polygon class="cls-4" points="910.21 148.87 915.72 149.38 919.98 145.86 920.49 140.36 916.95 136.11 911.44 135.6 907.19 139.12 906.67 144.62 910.21 148.87"/><line class="cls-4" x1="906.67" y1="144.62" x2="902.31" y2="145.95"/><line class="cls-4" x1="911.44" y1="135.6" x2="909.77" y2="131.38"/><line class="cls-4" x1="920.49" y1="140.36" x2="924.65" y2="138.57"/><line class="cls-4" x1="915.72" y1="149.39" x2="916.93" y2="153.76"/><path class="cls-48" d="m917.55,142.86c-.2,2.19-2.14,3.79-4.34,3.59-2.19-.2-3.8-2.14-3.6-4.33.2-2.19,2.14-3.79,4.34-3.59,2.19.2,3.8,2.14,3.6,4.33"/><path class="cls-1" d="m917.55,142.86c-.2,2.19-2.14,3.79-4.34,3.59-2.19-.2-3.8-2.14-3.6-4.33.2-2.19,2.14-3.79,4.34-3.59,2.19.2,3.8,2.14,3.6,4.33Z"/></g><text class="cls-25" transform="translate(739.24 69.88)"><tspan x="0" y="0">M</tspan><tspan class="cls-17" x="16.66" y="0">ole</tspan><tspan x="43.41" y="0">c</tspan><tspan class="cls-53" x="53.41" y="0">ula</tspan><tspan x="80.16" y="0">r</tspan><tspan class="cls-58" x="86.82" y="0" xml:space="preserve"> f</tspan><tspan class="cls-17" x="97.89" y="0">inge</tspan><tspan x="135.79" y="0">r</tspan><tspan class="cls-17" x="142.45" y="0">p</tspan><tspan x="153.59" y="0">r</tspan><tspan class="cls-53" x="160.25" y="0">in</tspan><tspan class="cls-55" x="175.85" y="0">t</tspan><tspan class="cls-17" x="181.39" y="0">ing </tspan><tspan x="-31.58" y="24">and high-throughput screening </tspan></text><path class="cls-33" d="m745.04,149.22l.95,9.7-8.91-3.95c-.57-.25-.82-.92-.57-1.48.25-.57.92-.82,1.48-.57l7.14,3.16-1.58,1.14-.76-7.78c-.06-.62.39-1.17,1.01-1.23s1.17.39,1.23,1.01Zm-39.44,12.14l.79-2.02,1.01-1.94,1.2-1.8,1.38-1.67,3.15-2.81,3.67-2.16,4.05-1.44,4.28-.66,2.25-.03,2.24.19,2.25.41,2.27.64,3.87,1.68,3.49,2.32,3.01,2.89,1.08,1.49-1.82,1.32-1.02-1.41.13.15-2.87-2.75.16.12-3.33-2.21.17.09-3.71-1.61.14.05-2.14-.6.1.02-2.14-.39h.11s-2.14-.16-2.14-.16h.11s-2.11.03-2.11.03h.16s-4.1.62-4.1.62l.21-.05-3.84,1.37.19-.09-3.48,2.05.18-.13-3.01,2.68.12-.12-1.29,1.56.07-.09-1.13,1.7.06-.1-.96,1.83.05-.11-.77,1.96-2.09-.82Z"/><g class="cls-51"><rect class="cls-30" x="758.82" y="138.98" width="8.48" height="8.36"/><path d="m759.34,139.5h7.43v7.33h-7.43v-7.33Zm-1.05,8.36h9.53v-9.39h-9.53v9.39Z"/><rect class="cls-35" x="758.82" y="147.56" width="8.48" height="8.36"/><path d="m759.34,148.08h7.43v7.33h-7.43v-7.33Zm-1.05,8.36h9.53v-9.39h-9.53v9.39Z"/><rect class="cls-36" x="758.82" y="156.18" width="8.48" height="8.36"/><path d="m759.34,156.7h7.43v7.32h-7.43v-7.32Zm-1.05,8.36h9.53v-9.39h-9.53v9.39Z"/><rect class="cls-21" x="758.82" y="164.79" width="8.48" height="8.36"/><path d="m759.34,165.3h7.43v7.33h-7.43v-7.33Zm-1.05,8.36h9.53v-9.39h-9.53v9.39Z"/><rect class="cls-27" x="758.82" y="173.38" width="8.48" height="8.36"/><path d="m759.34,173.9h7.43v7.33h-7.43v-7.33Zm-1.05,8.36h9.53v-9.39h-9.53v9.39Z"/><rect class="cls-41" x="758.82" y="182.01" width="8.48" height="8.36"/><path d="m759.34,182.53h7.43v7.33h-7.43v-7.33Zm-1.05,8.36h9.53v-9.39h-9.53v9.39Z"/><rect class="cls-36" x="758.82" y="190.82" width="8.48" height="8.36"/><path d="m759.34,191.34h7.43v7.33h-7.43v-7.33Zm-1.05,8.36h9.53v-9.39h-9.53v9.39Z"/><rect class="cls-32" x="758.82" y="199.24" width="8.48" height="8.36"/><path d="m759.34,199.76h7.43v7.32h-7.43v-7.32Zm-1.05,8.36h9.53v-9.39h-9.53v9.39Z"/><rect class="cls-21" x="758.82" y="207.7" width="8.48" height="8.36"/><path d="m759.34,208.22h7.43v7.32h-7.43v-7.32Zm-1.05,8.36h9.53v-9.39h-9.53v9.39Z"/><rect class="cls-29" x="758.82" y="216.09" width="8.48" height="8.36"/><path d="m759.34,216.61h7.43v7.33h-7.43v-7.33Zm-1.05,8.36h9.53v-9.39h-9.53v9.39Z"/><rect class="cls-22" x="758.82" y="224.59" width="8.48" height="8.36"/><path d="m759.34,225.1h7.43v7.33h-7.43v-7.33Zm-1.05,8.36h9.53v-9.39h-9.53v9.39Z"/></g><line class="cls-10" x1="944.99" y1="39.35" x2="735.31" y2="39.52"/><path class="cls-33" d="m811.2,113.49l4.86,8.92-13.35.72c-.85.05-1.44-.47-1.31-1.15.13-.68.92-1.27,1.77-1.31l10.71-.57-1.68,1.91-3.9-7.15c-.31-.57.09-1.33.89-1.71s1.71-.22,2.02.35Zm-48.15,31.88l.31-2.36.63-2.4.93-2.35,1.23-2.33,3.17-4.33,4.1-3.96,4.87-3.46,5.47-2.82,2.99-1.17,3.06-.96,3.15-.75,3.26-.54,5.79-.34,5.52.47,5.09,1.26,1.99.9-1.95,2.21-1.88-.85.24.08-4.84-1.2.25.04-5.26-.45h.27s-5.55.33-5.55.33l.21-.02-3.08.51.15-.03-3.01.72.15-.04-2.92.92.14-.05-2.81,1.1.21-.09-5.24,2.7.25-.15-4.63,3.28.23-.19-3.89,3.76.19-.22-3.02,4.13.11-.18-1.14,2.17.06-.13-.88,2.23.04-.13-.6,2.27.03-.13-.3,2.29-3.1.27Z"/></svg>