<?xml version="1.0" encoding="UTF-8"?><svg id="Layer_1" xmlns="http://www.w3.org/2000/svg" viewBox="0 0 136.42 108.88"><path d="m29.22,41.76c-.03-22.22,17.82-40.24,39.87-40.26,22.05-.02,39.94,17.98,39.97,40.19.03,22.22-17.82,40.24-39.87,40.26-22.05.02-39.94-17.98-39.97-40.19Z" style="fill:#ed2024; fill-rule:evenodd; stroke:#ed1c24; stroke-miterlimit:10;"/><ellipse cx="69.13" cy="41.74" rx="39.93" ry="40.24" transform="translate(-.04 .07) rotate(-.06)" style="fill:none; stroke:#ed1c24; stroke-miterlimit:8; stroke-width:3px;"/><path d="m1.5,81.98c-.01-13.7,10.99-24.81,24.58-24.82,13.59-.01,24.62,11.08,24.63,24.77.01,13.7-10.99,24.81-24.58,24.82-13.59.01-24.62-11.08-24.63-24.77Z" style="fill:#fff; fill-rule:evenodd; stroke:#a7a9ac; stroke-miterlimit:10;"/><ellipse cx="26.11" cy="82.58" rx="24.61" ry="24.8" style="fill:none; stroke:#fff; stroke-miterlimit:8; stroke-width:3px;"/><path d="m85.71,81.98c-.01-13.7,10.99-24.81,24.58-24.82,13.59-.01,24.62,11.08,24.63,24.77.01,13.69-10.99,24.81-24.58,24.82-13.59.01-24.62-11.08-24.63-24.77Z" style="fill:#fff; fill-rule:evenodd; stroke:#a7a9ac; stroke-miterlimit:10;"/><ellipse cx="110.31" cy="81.97" rx="24.61" ry="24.8" style="fill:none; stroke:#fff; stroke-miterlimit:8; stroke-width:3px;"/></svg>