<?xml version="1.0" encoding="UTF-8"?>
<svg id="Layer_1" data-name="Layer 1" xmlns="http://www.w3.org/2000/svg" viewBox="0 0 289.86 152.89">
  <defs>
    <style>
      .cls-1, .cls-2 {
        fill: #fff;
      }

      .cls-3, .cls-4 {
        fill: #7ec9f0;
      }

      .cls-5, .cls-6 {
        fill: #9dcd5a;
      }

      .cls-6, .cls-4 {
        font-size: 11px;
      }

      .cls-6, .cls-4, .cls-7 {
        font-family: Helvetica-Bold, Helvetica;
      }

      .cls-6, .cls-4, .cls-7, .cls-2 {
        font-weight: 700;
      }

      .cls-7 {
        font-size: 10px;
      }

      .cls-7, .cls-8 {
        fill: #fbad4b;
      }

      .cls-2 {
        font-family: ChakraPetch-Bold, 'Chakra Petch';
        font-size: 17px;
      }

      .cls-8 {
        fill-rule: evenodd;
      }
    </style>
  </defs>
  <text class="cls-2" transform="translate(122.14 55.97)"><tspan x="0" y="0">FOR</tspan></text>
  <g>
    <path class="cls-3" d="m67.8,94.03l-.03-.05-.04-.05-19.41-27.97-19.45,28.02-.03.05c-3.9,6.13-6.55,13.22-6.56,20.35,0,3.06.5,6.13,1.64,9.05,1.13,2.92,2.91,5.7,5.36,8.14h0c5.25,5.25,12.16,7.89,19.04,7.89,6.88,0,13.79-2.64,19.04-7.89l-2.28,2.28,2.28-2.28c2.45-2.44,4.22-5.22,5.36-8.14,1.14-2.93,1.64-5.99,1.64-9.05-.01-7.13-2.66-14.22-6.56-20.35Zm-1.09,27.07c-.82,2.11-2.07,4.08-3.91,5.92l2.28-2.28-2.28,2.28c-4.01,4.01-9.23,6-14.49,6-5.26,0-10.48-1.99-14.49-6h0c-1.83-1.84-3.09-3.81-3.91-5.92-.82-2.11-1.2-4.36-1.2-6.72-.02-5.47,2.13-11.53,5.53-16.85l14.07-20.27,14.07,20.27c3.39,5.32,5.54,11.38,5.53,16.85,0,2.36-.38,4.61-1.2,6.72Z"/>
    <path class="cls-3" d="m41.05,100.1c-3.36,3.74-8.72,13.57-5.35,20.42,3.75,7.65,8.86,3.1,6.48-1.74-4.61-9.34-1.12-18.68-1.12-18.68Z"/>
  </g>
  <path class="cls-8" d="m173.59,97.49c3.88,0,7.03,3.15,7.03,7.03v7.03c0,3.88-3.15,7.03-7.03,7.03v3.51c0,3.88-3.15,7.03-7.03,7.03h-21.09v-7.03h21.09v-28.11h-17.57v-7.03h17.57c3.88,0,7.03,3.15,7.03,7.03v3.51Zm-45.69,24.6v7.03h-17.57c-3.88,0-7.03-3.15-7.03-7.03v-28.11c0-3.88,3.15-7.03,7.03-7.03h21.09v7.03h-21.09v28.11h17.57Zm24.6-17.57l-17.57,24.6,3.51-17.57h-14.06l17.57-24.6-3.51,17.57h14.06Z"/>
  <text class="cls-7" transform="translate(107.29 140.19)"><tspan x="0" y="0">energy</tspan></text>
  <text class="cls-4" transform="translate(23.28 95.12) rotate(-54.25)"><tspan x="0" y="0">water</tspan></text>
  <g>
    <path class="cls-1" d="m9.03,11.28h2.38l6.52,15.72h.06l6.53-15.72h2.41v20.3h-2.09V15.54h-.06l-5.94,14.01h-1.74l-5.92-14.01h-.06v16.04h-2.09V11.28Z"/>
    <path class="cls-1" d="m31.27,28.39v-13.92l3.19-3.19h9.16l3.19,3.19v13.92l-3.19,3.19h-9.16l-3.19-3.19Zm11.37,1.22l1.97-1.94v-12.47l-1.97-1.94h-7.19l-1.97,1.94v12.47l1.97,1.94h7.19Z"/>
    <path class="cls-1" d="m51.16,11.28h2.2v18.36h10.32v1.94h-12.53V11.28Z"/>
    <path class="cls-1" d="m66.74,11.28h13.11v1.97h-10.9v7.13h10.06v1.97h-10.06v7.25h10.9v1.97h-13.11V11.28Z"/>
    <path class="cls-1" d="m83.32,28.39v-13.92l3.19-3.19h8.7l3.07,3.07v1.86h-2.2v-1.13l-1.86-1.83h-6.73l-1.97,1.94v12.47l1.97,1.94h6.73l1.86-1.83v-1.13h2.2v1.86l-3.07,3.07h-8.7l-3.19-3.19Z"/>
    <path class="cls-1" d="m101.91,28.39V11.28h2.2v16.38l1.97,1.94h6.61l1.97-1.94V11.28h2.2v17.11l-3.19,3.19h-8.58l-3.19-3.19Z"/>
    <path class="cls-1" d="m121.52,11.28h2.2v18.36h10.32v1.94h-12.53V11.28Z"/>
    <path class="cls-1" d="m142.57,11.28h2.38l7.22,20.3h-2.29l-1.89-5.48h-8.47l-1.88,5.48h-2.29l7.22-20.3Zm4.79,12.9l-3.57-10.35h-.06l-3.54,10.35h7.16Z"/>
    <path class="cls-1" d="m169.45,25.37v6.21h-2.2v-5.6l-2.78-2.93h-7.19v8.53h-2.2V11.28h11.6l2.67,2.67v6.41l-2.35,2.35,2.46,2.67Zm-12.18-4.23h8.44l1.45-1.42v-5.1l-1.45-1.42h-8.44v7.95Z"/>
    <path class="cls-1" d="m181.02,11.28h11.72l3.19,3.19v13.92l-3.19,3.19h-11.72V11.28Zm10.73,18.33l1.97-1.94v-12.47l-1.97-1.94h-8.53v16.36h8.53Z"/>
    <path class="cls-1" d="m200.28,11.28h13.11v1.97h-10.9v7.13h10.06v1.97h-10.06v7.25h10.9v1.97h-13.11V11.28Z"/>
    <path class="cls-1" d="m216.72,28.91v-1.86h2.17v1.13l1.39,1.42h6.96l1.45-1.48v-4.55l-1.45-1.42h-7.8l-2.67-2.67v-5.54l2.67-2.67h8.53l2.67,2.67v1.88h-2.15v-1.16l-1.45-1.42h-6.64l-1.45,1.42v4.09l1.45,1.42h7.8l2.67,2.67v6l-2.73,2.73h-8.76l-2.67-2.67Z"/>
    <path class="cls-1" d="m235.08,11.28h2.2v20.3h-2.2V11.28Z"/>
    <path class="cls-1" d="m241.78,28.39v-13.92l3.19-3.19h8.87l3.07,3.07v1.86h-2.2v-1.13l-1.86-1.83h-6.9l-1.97,1.94v12.47l1.97,1.94h6.79l1.97-1.94v-4.7h-4.58v-1.97h6.79v7.39l-3.19,3.19h-8.76l-3.19-3.19Z"/>
    <path class="cls-1" d="m260.97,11.28h2.15l10.58,16.7h.06V11.28h2.09v20.3h-2.15l-10.58-16.7h-.06v16.7h-2.09V11.28Z"/>
  </g>
  <path class="cls-5" d="m234.29,69.51c-17.62,0-31.9,14.28-31.9,31.9s14.28,31.9,31.9,31.9,31.9-14.28,31.9-31.9c-.02-17.61-14.29-31.88-31.9-31.9Zm-27.3,32.8l3.05,1.02,3.74,5.61v2.92c0,.6.24,1.18.67,1.61l6.17,6.17v5.42c-8.16-4.72-13.31-13.32-13.63-22.75Zm27.3,26.45c-1.97,0-3.94-.22-5.86-.65l1.3-3.91,4.11-10.28c.28-.7.2-1.49-.22-2.11l-3.22-4.82c-.42-.63-1.13-1.01-1.9-1.01h-11.23l-2.84-4.27,4.85-4.85h3.61v4.56h4.56v-6.23l8.81-15.43-3.96-2.26-1.95,3.41h-6.25l-2.47-3.71c6.72-3.55,14.62-4.1,21.76-1.53v7.52c0,1.26,1.02,2.28,2.28,2.28h3.34c.76,0,1.47-.38,1.9-1.01l2-3c2.6,2.43,4.71,5.34,6.2,8.57h-9.28c-1.09,0-2.02.77-2.23,1.83l-1.65,10.19c-.16.98.34,1.96,1.23,2.4l7.62,3.81,1.56,9.24c-5.13,7.07-13.33,11.26-22.07,11.27Z"/>
  <text class="cls-6" transform="translate(236.82 145.84) rotate(-9.33) scale(.74 1)"><tspan x="0" y="0">s</tspan></text>
  <text class="cls-6" transform="translate(242.26 144.91) rotate(-15.79) scale(.74 1)"><tspan x="0" y="0">u</tspan></text>
  <text class="cls-6" transform="translate(247.99 143.22) rotate(-22.4) scale(.74 1)"><tspan x="0" y="0">s</tspan></text>
  <text class="cls-6" transform="translate(252.99 141.07) rotate(-27.71) scale(.74 1)"><tspan x="0" y="0">t</tspan></text>
  <text class="cls-6" transform="translate(256.24 139.36) rotate(-33.21) scale(.74 1)"><tspan x="0" y="0">a</tspan></text>
  <text class="cls-6" transform="translate(260.74 136.3) rotate(-38.51) scale(.74 1)"><tspan x="0" y="0">i</tspan></text>
  <text class="cls-6" transform="translate(263.27 134.31) rotate(-44.29) scale(.74 1)"><tspan x="0" y="0">n</tspan></text>
  <text class="cls-6" transform="translate(267.52 130.06) rotate(-51.86) scale(.74 1)"><tspan x="0" y="0">a</tspan></text>
  <text class="cls-6" transform="translate(270.93 125.63) rotate(-59.72) scale(.74 1)"><tspan x="0" y="0">b</tspan></text>
  <text class="cls-6" transform="translate(273.81 120.44) rotate(-66.07) scale(.74 1)"><tspan x="0" y="0">i</tspan></text>
  <text class="cls-6" transform="translate(275.06 117.55) rotate(-70.47) scale(.74 1)"><tspan x="0" y="0">l</tspan></text>
  <text class="cls-6" transform="translate(276.08 114.56) rotate(-74.88) scale(.74 1)"><tspan x="0" y="0">i</tspan></text>
  <text class="cls-6" transform="translate(276.88 111.46) rotate(-79.2) scale(.74 1)"><tspan x="0" y="0">t</tspan></text>
  <text class="cls-6" transform="translate(277.55 107.85) rotate(-85.94) scale(.74 1)"><tspan x="0" y="0">y</tspan></text>
</svg>